<?xml version="1.0" encoding="UTF-8" standalone="no"?>
<svg
   id="Layer_1"
   version="1.1"
   viewBox="0 0 981.90002 369.60001"
   sodipodi:docname="building.svg"
   width="981.90002"
   height="369.60001"
   inkscape:version="1.4.2 (ebf0e940d0, 2025-05-08)"
   xmlns:inkscape="http://www.inkscape.org/namespaces/inkscape"
   xmlns:sodipodi="http://sodipodi.sourceforge.net/DTD/sodipodi-0.dtd"
   xmlns="http://www.w3.org/2000/svg"
   xmlns:svg="http://www.w3.org/2000/svg">
  <sodipodi:namedview
     id="namedview282"
     pagecolor="#ffffff"
     bordercolor="#000000"
     borderopacity="0.25"
     inkscape:showpageshadow="2"
     inkscape:pageopacity="0.0"
     inkscape:pagecheckerboard="0"
     inkscape:deskcolor="#d1d1d1"
     inkscape:zoom="0.97005208"
     inkscape:cx="483.47919"
     inkscape:cy="180.91812"
     inkscape:window-width="1536"
     inkscape:window-height="996"
     inkscape:window-x="0"
     inkscape:window-y="0"
     inkscape:window-maximized="1"
     inkscape:current-layer="Layer_1" />
  <!-- Generator: Adobe Illustrator 29.5.1, SVG Export Plug-In . SVG Version: 2.1.0 Build 141)  -->
  <defs
     id="defs48">
    <style
       id="style1">
      .st0, .st1, .st2 {
        fill: none;
      }

      .st3 {
        fill: #1d376a;
      }

      .st4 {
        fill: #f6c43f;
      }

      .st5 {
        clip-path: url(#clippath-17);
      }

      .st6 {
        clip-path: url(#clippath-19);
      }

      .st7 {
        clip-path: url(#clippath-11);
      }

      .st8 {
        clip-path: url(#clippath-16);
      }

      .st9 {
        clip-path: url(#clippath-18);
      }

      .st10 {
        clip-path: url(#clippath-10);
      }

      .st11 {
        clip-path: url(#clippath-15);
      }

      .st12 {
        clip-path: url(#clippath-13);
      }

      .st13 {
        clip-path: url(#clippath-14);
      }

      .st14 {
        clip-path: url(#clippath-12);
      }

      .st15 {
        clip-path: url(#clippath-31);
      }

      .st16 {
        clip-path: url(#clippath-32);
      }

      .st17 {
        clip-path: url(#clippath-33);
      }

      .st18 {
        clip-path: url(#clippath-34);
      }

      .st19 {
        clip-path: url(#clippath-35);
      }

      .st20 {
        clip-path: url(#clippath-39);
      }

      .st21 {
        clip-path: url(#clippath-30);
      }

      .st22 {
        clip-path: url(#clippath-36);
      }

      .st23 {
        clip-path: url(#clippath-37);
      }

      .st24 {
        clip-path: url(#clippath-38);
      }

      .st25 {
        clip-path: url(#clippath-27);
      }

      .st26 {
        clip-path: url(#clippath-29);
      }

      .st27 {
        clip-path: url(#clippath-26);
      }

      .st28 {
        clip-path: url(#clippath-28);
      }

      .st29 {
        clip-path: url(#clippath-20);
      }

      .st30 {
        clip-path: url(#clippath-21);
      }

      .st31 {
        clip-path: url(#clippath-22);
      }

      .st32 {
        clip-path: url(#clippath-23);
      }

      .st33 {
        clip-path: url(#clippath-24);
      }

      .st34 {
        clip-path: url(#clippath-25);
      }

      .st35 {
        clip-path: url(#clippath-41);
      }

      .st36 {
        clip-path: url(#clippath-42);
      }

      .st37 {
        clip-path: url(#clippath-43);
      }

      .st38 {
        clip-path: url(#clippath-44);
      }

      .st39 {
        clip-path: url(#clippath-45);
      }

      .st40 {
        clip-path: url(#clippath-40);
      }

      .st41 {
        clip-path: url(#clippath-46);
      }

      .st42 {
        clip-path: url(#clippath-47);
      }

      .st43 {
        clip-path: url(#clippath-1);
      }

      .st44 {
        clip-path: url(#clippath-3);
      }

      .st45 {
        clip-path: url(#clippath-4);
      }

      .st46 {
        clip-path: url(#clippath-2);
      }

      .st47 {
        clip-path: url(#clippath-7);
      }

      .st48 {
        clip-path: url(#clippath-6);
      }

      .st49 {
        clip-path: url(#clippath-9);
      }

      .st50 {
        clip-path: url(#clippath-8);
      }

      .st51 {
        clip-path: url(#clippath-5);
      }

      .st1 {
        stroke: #b88b1a;
      }

      .st1, .st2 {
        stroke-miterlimit: 10;
        stroke-width: 1.5px;
      }

      .st2 {
        stroke: #112646;
      }

      .st52 {
        fill: #112646;
        opacity: .5;
      }

      .st53 {
        clip-path: url(#clippath);
      }
    </style>
    <clipPath
       id="clippath">
      <path
         class="st0"
         d="m 352.9,570.2 c -50.9,0 -101.9,0 -152.8,0 0,-102.6 0,-205.2 0,-307.9 50.9,-4.8 101.8,-9.7 152.7,-14.5 0,107.5 0,214.9 0.1,322.4 z"
         id="path1" />
    </clipPath>
    <clipPath
       id="clippath-1">
      <path
         class="st0"
         d="m 817.8,521.1 c -73.7,-0.4 -147.4,-0.7 -221.1,-1.1 0.5,-99.8 0.9,-199.6 1.4,-299.4 73.4,-6 146.8,-12 220.2,-18 -0.2,106.2 -0.4,212.4 -0.5,318.6 z"
         id="path2" />
    </clipPath>
    <clipPath
       id="clippath-2">
      <path
         class="st0"
         d="M 1183.3,544.3 C 1057.7,536.5 932.1,528.8 806.6,521 c 0,-106.3 0,-212.6 0,-318.9 125.6,66.4 251.1,132.8 376.7,199.2 0,47.7 0,95.3 0,143 z"
         id="path3" />
    </clipPath>
    <clipPath
       id="clippath-3">
      <path
         class="st0"
         d="m 1155.7,368.2 c 9.3,5.4 18.6,10.9 28,16.3 0,11.2 0,22.4 0,33.6 -9.3,-4.4 -18.7,-8.9 -28,-13.3 0,-12.2 0,-24.4 0,-36.6 z"
         id="path4" />
    </clipPath>
    <clipPath
       id="clippath-4">
      <path
         class="st0"
         d="m 1155.7,404.8 c 9.3,4.4 18.7,8.9 28,13.3 0,16.9 0,33.7 0,50.6 -9.3,-2.9 -18.7,-5.8 -28,-8.7 0,-18.4 0,-36.8 0,-55.2 z"
         id="path5" />
    </clipPath>
    <clipPath
       id="clippath-5">
      <path
         class="st0"
         d="m 1155.7,460.1 c 9.3,2.9 18.7,5.8 28,8.7 0,16.9 0,33.7 0,50.6 -9.3,-1.3 -18.7,-2.7 -28,-4 0,-18.4 0,-36.8 0,-55.2 z"
         id="path6" />
    </clipPath>
    <clipPath
       id="clippath-6">
      <path
         class="st0"
         d="m 1155.7,515.3 c 9.3,1.3 18.7,2.7 28,4 0,12.6 0,25.2 0,37.8 -9.3,-0.2 -18.7,-0.4 -28,-0.6 0,-13.8 0,-27.5 0,-41.3 z"
         id="path7" />
    </clipPath>
    <clipPath
       id="clippath-7">
      <path
         class="st0"
         d="m 1121.5,348.2 c 11.4,6.7 22.8,13.3 34.2,20 0,12.2 0,24.4 0,36.6 -11.4,-5.4 -22.8,-10.8 -34.2,-16.2 0,-13.5 0,-26.9 0,-40.4 z"
         id="path8" />
    </clipPath>
    <clipPath
       id="clippath-8">
      <path
         class="st0"
         d="m 1121.5,388.6 c 11.4,5.4 22.8,10.8 34.2,16.2 0,18.4 0,36.8 0,55.2 -11.4,-3.5 -22.8,-7 -34.2,-10.6 0,-20.3 0,-40.6 0,-60.9 z"
         id="path9" />
    </clipPath>
    <clipPath
       id="clippath-9">
      <path
         class="st0"
         d="m 1121.5,449.5 c 11.4,3.5 22.8,7 34.2,10.6 0,18.4 0,36.8 0,55.2 -11.4,-1.6 -22.8,-3.3 -34.2,-4.9 0,-20.3 0,-40.6 0,-60.9 z"
         id="path10" />
    </clipPath>
    <clipPath
       id="clippath-10">
      <path
         class="st0"
         d="m 1121.5,510.4 c 11.4,1.6 22.8,3.3 34.2,4.9 0,13.8 0,27.5 0,41.3 -11.4,-0.2 -22.8,-0.5 -34.2,-0.7 0,-15.2 0,-30.3 0,-45.5 z"
         id="path11" />
    </clipPath>
    <clipPath
       id="clippath-11">
      <path
         class="st0"
         d="m 1079.6,323.7 c 14,8.2 28,16.3 42,24.5 0,13.5 0,26.9 0,40.4 -14,-6.6 -28,-13.3 -42,-19.9 0,-15 0,-30 0,-45 z"
         id="path12" />
    </clipPath>
    <clipPath
       id="clippath-12">
      <path
         class="st0"
         d="m 1079.6,368.7 c 14,6.6 28,13.3 42,19.9 0,20.3 0,40.6 0,60.9 l -42,-13 c 0,-22.6 0,-45.2 0,-67.8 z"
         id="path13" />
    </clipPath>
    <clipPath
       id="clippath-13">
      <path
         class="st0"
         d="m 1079.6,436.5 42,13 c 0,20.3 0,40.6 0,60.9 -14,-2 -28,-4 -42,-6 v -67.8 z"
         id="path14" />
    </clipPath>
    <clipPath
       id="clippath-14">
      <path
         class="st0"
         d="m 1079.5,504.3 c 14,2 28,4 42,6 0,15.2 0,30.3 0,45.5 -14,-0.3 -28,-0.6 -42,-0.8 0,-16.9 0,-33.8 0,-50.7 z"
         id="path15" />
    </clipPath>
    <clipPath
       id="clippath-15">
      <path
         class="st0"
         d="m 1026.9,292.9 c 17.6,10.3 35.1,20.5 52.7,30.8 0,15 0,30 0,45 -17.6,-8.3 -35.1,-16.7 -52.7,-25 0,-16.9 0,-33.9 0,-50.8 z"
         id="path16" />
    </clipPath>
    <clipPath
       id="clippath-16">
      <path
         class="st0"
         d="m 1026.9,343.7 c 17.6,8.3 35.1,16.7 52.7,25 0,22.6 0,45.2 0,67.8 -17.6,-5.4 -35.1,-10.9 -52.7,-16.3 z"
         id="path17" />
    </clipPath>
    <clipPath
       id="clippath-17">
      <path
         class="st0"
         d="m 1026.8,420.2 c 17.6,5.4 35.1,10.9 52.7,16.3 v 67.8 c -17.6,-2.5 -35.2,-5.1 -52.7,-7.6 0,-25.5 0,-51 0,-76.5 z"
         id="path18" />
    </clipPath>
    <clipPath
       id="clippath-18">
      <path
         class="st0"
         d="m 1026.8,496.8 c 17.6,2.5 35.1,5.1 52.7,7.6 0,16.9 0,33.8 0,50.7 -17.6,-0.4 -35.1,-0.7 -52.7,-1.1 0,-19.1 0,-38.1 0,-57.2 z"
         id="path19" />
    </clipPath>
    <clipPath
       id="clippath-19">
      <path
         class="st0"
         d="m 958.5,252.9 c 22.8,13.3 45.6,26.6 68.4,40 0,16.9 0,33.9 0,50.8 -22.8,-10.8 -45.6,-21.6 -68.4,-32.5 0,-19.4 0,-38.9 0,-58.3 z"
         id="path20" />
    </clipPath>
    <clipPath
       id="clippath-20">
      <path
         class="st0"
         d="m 958.5,311.2 c 22.8,10.8 45.6,21.6 68.4,32.5 v 76.5 c -22.8,-7 -45.6,-14.1 -68.4,-21.1 0,-29.3 0,-58.6 0,-87.8 z"
         id="path21" />
    </clipPath>
    <clipPath
       id="clippath-21">
      <path
         class="st0"
         d="m 958.5,399.1 c 22.8,7 45.6,14.1 68.4,21.1 0,25.5 0,51 0,76.5 l -68.4,-9.8 c 0,-29.3 0,-58.6 0,-87.9 z"
         id="path22" />
    </clipPath>
    <clipPath
       id="clippath-22">
      <path
         class="st0"
         d="m 958.4,486.9 68.4,9.8 c 0,19.1 0,38.1 0,57.2 -22.8,-0.5 -45.6,-0.9 -68.4,-1.4 v -65.7 z"
         id="path23" />
    </clipPath>
    <clipPath
       id="clippath-23">
      <path
         class="st0"
         d="m 866.6,199.2 c 30.6,17.9 61.2,35.8 91.9,53.7 0,19.4 0,38.9 0,58.3 -30.6,-14.5 -61.3,-29.1 -91.9,-43.6 0,-22.8 0,-45.6 0,-68.4 z"
         id="path24" />
    </clipPath>
    <clipPath
       id="clippath-24">
      <path
         class="st0"
         d="m 866.6,267.6 c 30.6,14.5 61.3,29.1 91.9,43.6 0,29.3 0,58.6 0,87.8 -30.6,-9.5 -61.3,-18.9 -91.9,-28.4 0,-34.3 0,-68.7 0,-103 z"
         id="path25" />
    </clipPath>
    <clipPath
       id="clippath-25">
      <path
         class="st0"
         d="m 866.6,370.7 c 30.6,9.5 61.3,18.9 91.9,28.4 0,29.3 0,58.6 0,87.9 -30.6,-4.4 -61.3,-8.8 -91.9,-13.2 0,-34.4 0,-68.7 0,-103.1 z"
         id="path26" />
    </clipPath>
    <clipPath
       id="clippath-26">
      <path
         class="st0"
         d="m 866.6,473.7 c 30.6,4.4 61.3,8.8 91.9,13.2 v 65.7 c -30.6,-0.6 -61.3,-1.2 -91.9,-1.8 0,-25.7 0,-51.4 0,-77 z"
         id="path27" />
    </clipPath>
    <clipPath
       id="clippath-27">
      <path
         class="st0"
         d="m 774.6,147.2 c 31.2,16.5 61.6,34.2 92.1,52 0,22.8 0,45.6 0,68.4 -30.7,-14.6 -61.4,-29.1 -92.1,-43.7 0,-25.6 0,-51.1 0,-76.7 z"
         id="path28" />
    </clipPath>
    <clipPath
       id="clippath-28">
      <path
         class="st0"
         d="m 774.5,223.9 c 30.7,14.6 61.4,29.1 92.1,43.7 0,34.3 0,68.7 0,103 -30.7,-9.5 -61.4,-19 -92.1,-28.5 0,-39.4 0,-78.9 0,-118.3 z"
         id="path29" />
    </clipPath>
    <clipPath
       id="clippath-29">
      <path
         class="st0"
         d="m 774.5,342.2 c 30.7,9.5 61.4,19 92.1,28.5 0,34.4 0,68.7 0,103.1 -30.7,-4.4 -61.4,-8.8 -92.1,-13.2 V 342.3 Z"
         id="path30" />
    </clipPath>
    <clipPath
       id="clippath-30">
      <path
         class="st0"
         d="m 774.5,460.5 c 30.7,4.4 61.4,8.8 92.1,13.2 0,25.7 0,51.4 0,77 -30.8,-0.6 -61.4,-1.3 -92.1,-3.2 0,-29 0,-58.1 0,-87.1 z"
         id="path31" />
    </clipPath>
    <clipPath
       id="clippath-31">
      <path
         class="st0"
         d="M 593.5,570.2 H 353 c 0,-108.7 -0.1,-217.5 -0.2,-326.2 79.9,21.2 159.9,42.3 239.8,63.5 0.3,87.6 0.6,175.1 0.9,262.7 z"
         id="path32" />
    </clipPath>
    <clipPath
       id="clippath-32">
      <path
         class="st0"
         d="m 533.1,255.6 c 19.9,6 39.9,12 59.8,17.9 0,22.9 0.2,45.7 0.2,68.6 -20,-4.6 -39.9,-9.2 -59.9,-13.8 0,-24.2 -0.1,-48.5 -0.2,-72.7 z"
         id="path33" />
    </clipPath>
    <clipPath
       id="clippath-33">
      <path
         class="st0"
         d="m 533.3,328.3 c 20,4.6 39.9,9.2 59.9,13.8 0.1,34.3 0.2,68.6 0.4,102.9 -20,-2.5 -40,-5.1 -59.9,-7.6 0,-36.4 -0.2,-72.7 -0.3,-109.1 z"
         id="path34" />
    </clipPath>
    <clipPath
       id="clippath-34">
      <path
         class="st0"
         d="m 533.6,437.4 c 20,2.5 40,5.1 59.9,7.6 0.1,34.4 0.2,68.8 0.4,103.1 -20,-0.4 -40,-0.9 -60,-1.3 0,-36.5 -0.2,-72.9 -0.3,-109.4 z"
         id="path35" />
    </clipPath>
    <clipPath
       id="clippath-35">
      <path
         class="st0"
         d="m 533.9,546.8 c 20,0.4 40,0.9 60,1.3 0,20.9 0.1,41.8 0.2,62.7 -20,0.8 -40,1.6 -60,2.4 0,-22.2 -0.1,-44.3 -0.2,-66.5 z"
         id="path36" />
    </clipPath>
    <clipPath
       id="clippath-36">
      <path
         class="st0"
         d="m 464.9,235.2 c 22.7,6.8 45.4,13.6 68.2,20.4 0,24.2 0.1,48.5 0.2,72.7 -22.7,-5.2 -45.5,-10.5 -68.2,-15.7 0,-25.8 0,-51.6 -0.1,-77.4 z"
         id="path37" />
    </clipPath>
    <clipPath
       id="clippath-37">
      <path
         class="st0"
         d="m 465.1,312.6 c 22.7,5.2 45.5,10.5 68.2,15.7 0,36.4 0.2,72.7 0.3,109.1 -22.8,-2.9 -45.5,-5.8 -68.3,-8.6 0,-38.7 -0.1,-77.4 -0.2,-116.2 z"
         id="path38" />
    </clipPath>
    <clipPath
       id="clippath-38">
      <path
         class="st0"
         d="m 465.3,428.8 c 22.8,2.9 45.5,5.8 68.3,8.6 0,36.5 0.2,72.9 0.3,109.4 -22.8,-0.5 -45.6,-1 -68.4,-1.5 0,-38.8 -0.1,-77.7 -0.2,-116.5 z"
         id="path39" />
    </clipPath>
    <clipPath
       id="clippath-39">
      <path
         class="st0"
         d="m 465.5,545.3 c 22.8,0.5 45.6,1 68.4,1.5 0,22.2 0.1,44.3 0.2,66.5 -22.8,0.9 -45.6,1.9 -68.4,2.8 0,-23.6 0,-47.2 -0.1,-70.8 z"
         id="path40" />
    </clipPath>
    <clipPath
       id="clippath-40">
      <path
         class="st0"
         d="m 387.3,212 c 25.9,7.7 51.7,15.5 77.6,23.2 0,25.8 0,51.6 0.1,77.4 -25.9,-6 -51.8,-11.9 -77.7,-17.9 0,-27.6 0,-55.2 0,-82.7 z"
         id="path41" />
    </clipPath>
    <clipPath
       id="clippath-41">
      <path
         class="st0"
         d="m 387.4,294.7 c 25.9,6 51.8,11.9 77.7,17.9 0,38.7 0.1,77.4 0.2,116.2 -25.9,-3.3 -51.9,-6.6 -77.8,-9.8 0,-41.4 0,-82.8 -0.1,-124.2 z"
         id="path42" />
    </clipPath>
    <clipPath
       id="clippath-42">
      <path
         class="st0"
         d="m 387.5,418.9 c 25.9,3.3 51.9,6.6 77.8,9.8 0,38.8 0.1,77.7 0.2,116.5 -26,-0.6 -51.9,-1.2 -77.9,-1.7 0,-41.5 0,-83.1 -0.1,-124.6 z"
         id="path43" />
    </clipPath>
    <clipPath
       id="clippath-43">
      <path
         class="st0"
         d="m 387.6,543.5 c 26,0.6 51.9,1.2 77.9,1.7 0,23.6 0,47.2 0.1,70.8 -26,1.1 -52,2.1 -78,3.2 v -75.8 z"
         id="path44" />
    </clipPath>
    <clipPath
       id="clippath-44">
      <path
         class="st0"
         d="m 326.6,194.7 c 20.4,5.4 40.5,11.2 60.7,17.3 0,27.6 0,55.2 0,82.7 -20.3,-4.7 -40.5,-9.3 -60.8,-14 0,-28.7 0,-57.3 0,-86 z"
         id="path45" />
    </clipPath>
    <clipPath
       id="clippath-45">
      <path
         class="st0"
         d="m 326.6,280.8 c 20.3,4.7 40.5,9.3 60.8,14 0,41.4 0,82.8 0.1,124.2 -20.3,-2.6 -40.6,-5.1 -60.9,-7.7 0,-43.5 0,-87 0,-130.5 z"
         id="path46" />
    </clipPath>
    <clipPath
       id="clippath-46">
      <path
         class="st0"
         d="m 326.7,411.2 c 20.3,2.6 40.6,5.1 60.9,7.7 0,41.5 0,83.1 0.1,124.6 -20.3,-0.5 -40.6,-0.9 -61,-1.4 0,-43.6 0,-87.3 0,-130.9 z"
         id="path47" />
    </clipPath>
    <clipPath
       id="clippath-47">
      <path
         class="st0"
         d="m 326.7,542.2 c 20.3,0.5 40.6,0.9 61,1.4 v 75.8 c -20.3,0.8 -40.5,1.4 -60.9,1.4 0,-26.2 0,-52.4 0,-78.5 z"
         id="path48" />
    </clipPath>
  </defs>
  <g
     id="g69"
     transform="translate(-200.1,-202.6)">
    <line
       class="st2"
       x1="798.40002"
       y1="520.70001"
       x2="798.40002"
       y2="572.20001"
       id="line48" />
    <line
       class="st2"
       x1="815.59998"
       y1="521.79999"
       x2="815.59998"
       y2="571.90002"
       id="line49" />
    <line
       class="st2"
       x1="832.70001"
       y1="522.79999"
       x2="832.70001"
       y2="571.70001"
       id="line50" />
    <line
       class="st2"
       x1="849.79999"
       y1="523.90002"
       x2="849.79999"
       y2="571.5"
       id="line51" />
    <line
       class="st2"
       x1="866.90002"
       y1="525"
       x2="866.90002"
       y2="571.20001"
       id="line52" />
    <line
       class="st2"
       x1="884"
       y1="526"
       x2="884"
       y2="571"
       id="line53" />
    <line
       class="st2"
       x1="901.09998"
       y1="527.09998"
       x2="901.09998"
       y2="570.70001"
       id="line54" />
    <line
       class="st2"
       x1="918.20001"
       y1="528.09998"
       x2="918.20001"
       y2="570.5"
       id="line55" />
    <line
       class="st2"
       x1="935.40002"
       y1="529.20001"
       x2="935.40002"
       y2="570.29999"
       id="line56" />
    <line
       class="st2"
       x1="952.5"
       y1="530.20001"
       x2="952.5"
       y2="570"
       id="line57" />
    <line
       class="st2"
       x1="969.59998"
       y1="531.29999"
       x2="969.59998"
       y2="569.79999"
       id="line58" />
    <line
       class="st2"
       x1="986.70001"
       y1="532.29999"
       x2="986.70001"
       y2="569.5"
       id="line59" />
    <line
       class="st2"
       x1="1003.8"
       y1="533.40002"
       x2="1003.8"
       y2="569.29999"
       id="line60" />
    <line
       class="st2"
       x1="1020.9"
       y1="534.40002"
       x2="1020.9"
       y2="569.09998"
       id="line61" />
    <line
       class="st2"
       x1="1038"
       y1="535.5"
       x2="1038"
       y2="568.79999"
       id="line62" />
    <line
       class="st2"
       x1="1055.2"
       y1="536.59998"
       x2="1055.2"
       y2="568.59998"
       id="line63" />
    <line
       class="st2"
       x1="1072.3"
       y1="537.59998"
       x2="1072.3"
       y2="568.29999"
       id="line64" />
    <line
       class="st2"
       x1="1089.4"
       y1="538.70001"
       x2="1089.4"
       y2="568.09998"
       id="line65" />
    <line
       class="st2"
       x1="1106.5"
       y1="539.70001"
       x2="1106.5"
       y2="567.90002"
       id="line66" />
    <line
       class="st2"
       x1="1123.6"
       y1="540.79999"
       x2="1123.6"
       y2="567.59998"
       id="line67" />
    <line
       class="st2"
       x1="1140.7"
       y1="541.79999"
       x2="1140.7"
       y2="567.40002"
       id="line68" />
    <line
       class="st2"
       x1="1157.8"
       y1="542.90002"
       x2="1157.8"
       y2="567.09998"
       id="line69" />
  </g>
  <g
     id="g81"
     transform="translate(-200.1,-202.6)">
    <line
       class="st1"
       x1="797.79999"
       y1="520.70001"
       x2="797.79999"
       y2="572.20001"
       id="line70" />
    <line
       class="st1"
       x1="781.29999"
       y1="520.70001"
       x2="781.29999"
       y2="571.79999"
       id="line71" />
    <line
       class="st1"
       x1="764.79999"
       y1="520.70001"
       x2="764.79999"
       y2="571.40002"
       id="line72" />
    <line
       class="st1"
       x1="748.29999"
       y1="520.59998"
       x2="748.29999"
       y2="571"
       id="line73" />
    <line
       class="st1"
       x1="731.79999"
       y1="520.59998"
       x2="731.79999"
       y2="570.59998"
       id="line74" />
    <line
       class="st1"
       x1="715.29999"
       y1="520.5"
       x2="715.29999"
       y2="570.20001"
       id="line75" />
    <line
       class="st1"
       x1="698.90002"
       y1="520.5"
       x2="698.90002"
       y2="569.90002"
       id="line76" />
    <line
       class="st1"
       x1="682.40002"
       y1="520.40002"
       x2="682.40002"
       y2="569.5"
       id="line77" />
    <line
       class="st1"
       x1="665.90002"
       y1="520.40002"
       x2="665.90002"
       y2="569.09998"
       id="line78" />
    <line
       class="st1"
       x1="649.40002"
       y1="520.29999"
       x2="649.40002"
       y2="568.70001"
       id="line79" />
    <line
       class="st1"
       x1="632.90002"
       y1="520.29999"
       x2="632.90002"
       y2="568.29999"
       id="line80" />
    <line
       class="st1"
       x1="616.40002"
       y1="520.20001"
       x2="616.40002"
       y2="567.90002"
       id="line81" />
  </g>
  <g
     class="st53"
     clip-path="url(#clippath)"
     id="g120"
     transform="translate(-200.1,-202.6)">
    <g
       id="g82">
      <path
         class="st0"
         d="m 299.7,196.3 c 21,-2.3 42,-5 63,-6.9 0,25 0,50 0,75.1 -21,1.9 -42,3.8 -63,5.7 0,-24.6 0,-49.2 0,-73.8 z"
         id="path81" />
      <path
         class="st4"
         d="m 332.4,267.2 c -5.3,0.5 -8,0.7 -13.3,1.2 0,-13.8 0,-27.7 0,-41.5 5.3,-0.5 7.9,-0.8 13.3,-1.4 0,13.9 0,27.8 0,41.7 z"
         id="path82" />
    </g>
    <g
       id="g86">
      <path
         class="st0"
         d="m 299.7,270.2 c 21,-1.9 42,-3.8 63,-5.7 0,44.3 0,88.6 0,132.9 -21,1.1 -42,2.1 -63,3.2 0,-43.5 0,-86.9 0,-130.4 z"
         id="path83" />
      <path
         class="st4"
         d="m 312.9,334.4 c -5.3,0.4 -7.9,0.6 -13.1,0.9 0,-21.7 0,-43.5 0,-65.2 5.2,-0.5 7.9,-0.7 13.1,-1.2 0,21.8 0,43.6 0,65.4 z"
         id="path84" />
      <path
         class="st4"
         d="m 352.8,331.6 c -5.4,0.4 -8.1,0.6 -13.4,0.9 0,-22 0,-44 0,-66 5.4,-0.5 8,-0.7 13.4,-1.2 0,22.1 0,44.1 0,66.2 z"
         id="path85" />
      <path
         class="st4"
         d="m 332.4,398.9 c -5.3,0.3 -8,0.4 -13.3,0.7 0,-21.9 0,-43.7 0,-65.6 5.3,-0.4 7.9,-0.6 13.3,-0.9 0,21.9 0,43.9 0,65.8 z"
         id="path86" />
    </g>
    <g
       id="g90">
      <path
         class="st0"
         d="m 299.8,400.6 c 21,-1.1 42,-2.1 63,-3.2 0,44.3 0,88.6 0,132.9 -21,0.2 -42,0.5 -63.1,0.7 0,-43.5 0,-87 0,-130.4 z"
         id="path87" />
      <path
         class="st4"
         d="m 312.9,465.4 c -5.3,0.2 -7.9,0.2 -13.1,0.4 0,-21.7 0,-43.5 0,-65.2 5.2,-0.3 7.9,-0.4 13.1,-0.7 0,21.8 0,43.6 0,65.5 z"
         id="path88" />
      <path
         class="st4"
         d="m 352.9,464.1 c -5.4,0.2 -8.1,0.3 -13.4,0.4 0,-22 0,-44 0,-66 5.4,-0.3 8,-0.4 13.4,-0.7 0,22.1 0,44.2 0,66.2 z"
         id="path89" />
      <path
         class="st4"
         d="m 332.4,530.6 c -5.3,0 -8,0 -13.3,0.2 0,-21.9 0,-43.7 0,-65.6 5.3,-0.2 7.9,-0.2 13.3,-0.4 0,22 0,43.9 0,65.9 z"
         id="path90" />
    </g>
    <g
       id="g93">
      <path
         class="st0"
         d="m 299.8,531 c 21,-0.2 42,-0.5 63.1,-0.7 0,28.8 0,57.5 0,86.3 -21,0 -42,-0.4 -63.1,-0.7 v -84.8 z"
         id="path91" />
      <path
         class="st4"
         d="m 312.9,583.3 c -5.3,0 -7.9,0 -13.1,0 0,-17.4 0,-34.8 0,-52.2 5.2,0 7.9,0 13.1,-0.2 0,17.5 0,34.9 0,52.4 z"
         id="path92" />
      <path
         class="st4"
         d="m 352.9,583.4 c -5.4,0 -8.1,0 -13.4,0 0,-17.6 0,-35.2 0,-52.8 5.4,0 8,0 13.4,-0.2 z"
         id="path93" />
    </g>
    <g
       id="g96">
      <path
         class="st0"
         d="m 229.7,204.2 c 23.3,-2.6 46.7,-5.2 70,-7.8 0,24.6 0,49.2 0,73.8 -23.3,2.1 -46.7,4.2 -70,6.3 z"
         id="path94" />
      <path
         class="st4"
         d="m 261,273.6 c -5.1,0.5 -7.6,0.7 -12.7,1.1 0,-13.5 0,-27.1 0,-40.6 5.1,-0.5 7.6,-0.8 12.7,-1.3 0,13.6 0,27.2 0,40.8 z"
         id="path95" />
      <path
         class="st4"
         d="m 299.7,270.2 c -5.2,0.5 -7.8,0.7 -13,1.2 0,-13.7 0,-27.4 0,-41.1 5.2,-0.5 7.8,-0.8 13,-1.3 0,13.7 0,27.5 0,41.2 z"
         id="path96" />
    </g>
    <g
       id="g101">
      <path
         class="st0"
         d="m 229.7,276.4 c 23.3,-2.1 46.7,-4.2 70,-6.3 0,43.5 0,86.9 0,130.4 -23.3,1.2 -46.7,2.4 -70,3.6 z"
         id="path97" />
      <path
         class="st4"
         d="m 242.3,339.4 c -5,0.4 -7.6,0.5 -12.6,0.9 0,-21.3 0,-42.5 0,-63.8 5,-0.4 7.5,-0.7 12.6,-1.1 0,21.4 0,42.7 0,64.1 z"
         id="path98" />
      <path
         class="st4"
         d="m 280.6,336.7 c -5.2,0.4 -7.7,0.5 -12.9,0.9 0,-21.5 0,-43 0,-64.6 5.1,-0.5 7.7,-0.7 12.9,-1.2 0,21.6 0,43.2 0,64.8 z"
         id="path99" />
      <path
         class="st4"
         d="m 261,402.5 c -5.1,0.3 -7.7,0.4 -12.7,0.6 0,-21.4 0,-42.8 0,-64.2 5.1,-0.4 7.6,-0.5 12.7,-0.9 0,21.5 0,43 0,64.4 z"
         id="path100" />
      <path
         class="st4"
         d="m 299.8,400.6 c -5.2,0.3 -7.8,0.4 -13,0.7 0,-21.6 0,-43.3 0,-64.9 5.2,-0.4 7.8,-0.5 13,-0.9 0,21.7 0,43.5 0,65.2 z"
         id="path101" />
    </g>
    <g
       id="g106">
      <path
         class="st0"
         d="m 229.8,404.1 c 23.3,-1.2 46.7,-2.4 70,-3.6 0,43.5 0,87 0,130.4 -23.3,0.3 -46.7,0.5 -70,0.8 0,-42.6 0,-85.1 0,-127.7 z"
         id="path102" />
      <path
         class="st4"
         d="m 242.3,467.6 c -5,0.2 -7.6,0.2 -12.6,0.4 0,-21.3 0,-42.6 0,-63.8 5,-0.3 7.5,-0.4 12.6,-0.6 0,21.4 0,42.7 0,64.1 z"
         id="path103" />
      <path
         class="st4"
         d="m 280.6,466.4 c -5.2,0.2 -7.7,0.2 -12.9,0.4 0,-21.5 0,-43.1 0,-64.6 5.1,-0.3 7.7,-0.4 12.9,-0.7 0,21.6 0,43.2 0,64.8 z"
         id="path104" />
      <path
         class="st4"
         d="m 261.1,531.4 c -5.1,0 -7.7,0 -12.7,0.1 0,-21.4 0,-42.8 0,-64.2 5.1,-0.2 7.6,-0.2 12.7,-0.4 0,21.5 0,43 0,64.5 z"
         id="path105" />
      <path
         class="st4"
         d="m 299.8,531 c -5.2,0 -7.8,0 -13,0.2 0,-21.7 0,-43.3 0,-65 5.2,-0.2 7.8,-0.2 13,-0.4 0,21.7 0,43.5 0,65.2 z"
         id="path106" />
    </g>
    <g
       id="g109">
      <path
         class="st0"
         d="m 229.8,531.8 c 23.3,-0.3 46.7,-0.5 70,-0.8 v 84.8 c -23.3,-0.3 -46.7,-0.6 -70,-1 0,-27.7 0,-55.4 0,-83.1 z"
         id="path107" />
      <path
         class="st4"
         d="m 242.4,583 c -5.1,0 -7.6,0 -12.6,0 0,-17 0,-34.1 0,-51.1 5,0 7.5,0 12.6,-0.1 0,17.1 0,34.2 0,51.3 z"
         id="path108" />
      <path
         class="st4"
         d="m 280.7,583.1 c -5.2,0 -7.7,0 -12.9,0 0,-17.2 0,-34.5 0,-51.7 5.1,0 7.7,0 12.9,-0.1 0,17.3 0,34.6 0,51.9 z"
         id="path109" />
    </g>
    <g
       id="g111">
      <path
         class="st0"
         d="m 181.1,209.3 c 16.2,-1.5 32.4,-3.3 48.6,-5.1 v 72.3 c -16.2,1.5 -32.4,2.9 -48.6,4.4 0,-23.8 0,-47.7 0,-71.5 z"
         id="path110" />
      <path
         class="st4"
         d="m 229.7,276.4 c -5,0.4 -7.5,0.7 -12.5,1.1 0,-13.4 0,-26.8 0,-40.2 5,-0.5 7.5,-0.8 12.5,-1.3 0,13.5 0,26.9 0,40.4 z"
         id="path111" />
    </g>
    <g
       id="g114">
      <path
         class="st0"
         d="m 181.2,280.8 c 16.2,-1.5 32.4,-2.9 48.6,-4.4 v 127.7 c -16.2,0.8 -32.4,1.6 -48.6,2.5 0,-41.9 0,-83.8 0,-125.8 z"
         id="path112" />
      <path
         class="st4"
         d="m 211.4,341.6 c -5,0.3 -6.9,0.5 -11.8,0.8 0,-21.1 0,-42.2 0,-63.2 4.9,-0.4 6.9,-0.6 11.8,-1.1 z"
         id="path113" />
      <path
         class="st4"
         d="m 229.8,404.1 c -5,0.3 -7.5,0.4 -12.5,0.6 0,-21.2 0,-42.4 0,-63.6 5,-0.3 7.5,-0.5 12.5,-0.9 0,21.3 0,42.6 0,63.8 z"
         id="path114" />
    </g>
    <g
       id="g117">
      <path
         class="st0"
         d="m 181.2,406.6 48.6,-2.5 c 0,42.6 0,85.1 0,127.7 -16.2,0.2 -32.4,0.4 -48.6,0.6 0,-41.9 0,-83.9 0,-125.8 z"
         id="path115" />
      <path
         class="st4"
         d="m 211.4,468.5 c -5,0.2 -6.9,0.2 -11.8,0.4 0,-21.1 0,-42.2 0,-63.3 4.9,-0.2 6.9,-0.3 11.8,-0.6 0,21.2 0,42.3 0,63.5 z"
         id="path116" />
      <path
         class="st4"
         d="m 229.8,531.8 c -5,0 -7.5,0 -12.5,0.1 0,-21.2 0,-42.4 0,-63.6 5,-0.2 7.5,-0.2 12.5,-0.4 0,21.3 0,42.6 0,63.9 z"
         id="path117" />
    </g>
    <g
       id="g119">
      <path
         class="st0"
         d="m 181.2,532.4 c 16.2,-0.2 32.4,-0.4 48.6,-0.6 0,27.7 0,55.4 0,83.1 -16.2,-0.2 -32.4,-0.4 -48.6,-0.4 0,-27.4 0,-54.7 0,-82.1 z"
         id="path118" />
      <path
         class="st4"
         d="m 211.4,582.9 c -5,0 -6.9,0 -11.8,0 0,-16.9 0,-33.8 0,-50.6 4.9,0 6.9,0 11.8,-0.1 0,16.9 0,33.9 0,50.8 z"
         id="path119" />
    </g>
  </g>
  <g
     class="st43"
     clip-path="url(#clippath-1)"
     id="g162"
     transform="translate(-200.1,-202.6)">
    <g
       id="g121">
      <path
         class="st0"
         d="m 757.7,154.9 c 22.9,-2.2 45.9,-4.7 68.8,-6.5 0,29.6 0,59.2 -0.1,88.7 -23,1.7 -45.9,3.3 -68.9,5 0,-29.1 0.1,-58.1 0.2,-87.2 z"
         id="path120" />
      <path
         class="st4"
         d="m 791.9,239.6 c -5.6,0.4 -8.4,0.6 -14,1 0,-17.5 0,-35 0.1,-52.5 5.6,-0.5 8.4,-0.8 14,-1.2 0,17.6 0,35.2 -0.1,52.7 z"
         id="path121" />
    </g>
    <g
       id="g125">
      <path
         class="st0"
         d="m 757.5,242.1 c 23,-1.7 45.9,-3.3 68.9,-5 0,47.6 -0.1,95.3 -0.2,142.9 -23,0.8 -46,1.5 -69,2.3 0.1,-46.8 0.2,-93.5 0.4,-140.3 z"
         id="path122" />
      <path
         class="st4"
         d="m 771.2,311.4 c -5.6,0.3 -8.3,0.4 -13.9,0.7 0,-23.4 0.1,-46.7 0.2,-70.1 5.5,-0.4 8.3,-0.6 13.9,-1 0,23.4 -0.1,46.9 -0.2,70.3 z"
         id="path123" />
      <path
         class="st4"
         d="m 813.4,309.2 c -5.7,0.3 -8.5,0.5 -14.2,0.7 0,-23.6 0,-47.2 0.1,-70.9 5.7,-0.4 8.5,-0.6 14.2,-1 0,23.7 0,47.4 -0.1,71.1 z"
         id="path124" />
      <path
         class="st4"
         d="m 791.7,381.2 c -5.6,0.2 -8.4,0.3 -14,0.5 l 0.2,-70.6 c 5.6,-0.3 8.4,-0.4 14,-0.7 v 70.9 z"
         id="path125" />
    </g>
    <g
       id="g129">
      <path
         class="st0"
         d="m 757.1,382.3 c 23,-0.8 46,-1.5 69,-2.3 0,47.4 -0.1,94.9 -0.2,142.3 -23.1,-0.1 -46.1,-0.2 -69.2,-0.4 0.1,-46.5 0.2,-93.1 0.4,-139.6 z"
         id="path126" />
      <path
         class="st4"
         d="m 770.8,452.5 c -5.6,0 -8.4,0.1 -13.9,0.2 0,-23.4 0.1,-46.9 0.2,-70.3 5.5,-0.2 8.3,-0.3 13.9,-0.5 0,23.5 -0.1,47.1 -0.2,70.6 z"
         id="path127" />
      <path
         class="st4"
         d="m 813.2,451.9 c -5.7,0 -8.6,0.1 -14.2,0.2 0,-23.7 0,-47.4 0.1,-71.1 5.7,-0.2 8.5,-0.3 14.2,-0.5 0,23.8 0,47.6 -0.1,71.4 z"
         id="path128" />
      <path
         class="st4"
         d="m 791.4,522.2 c -5.6,0 -8.5,0 -14.1,0 0,-23.2 0.1,-46.5 0.2,-69.7 5.6,0 8.4,-0.1 14.1,-0.2 0,23.3 0,46.6 -0.1,70 z"
         id="path129" />
    </g>
    <g
       id="g132">
      <path
         class="st0"
         d="m 683.8,162 c 24.6,-2.4 49.3,-4.7 73.9,-7.1 0,29.1 -0.1,58.1 -0.2,87.2 -24.7,1.8 -49.3,3.6 -74,5.3 z"
         id="path130" />
      <path
         class="st4"
         d="m 716.6,245 c -5.4,0.4 -8.1,0.6 -13.4,1 0,-17.2 0.1,-34.3 0.2,-51.5 5.4,-0.4 8,-0.7 13.4,-1.2 0,17.2 -0.1,34.4 -0.2,51.6 z"
         id="path131" />
      <path
         class="st4"
         d="m 757.5,242.1 c -5.5,0.4 -8.3,0.6 -13.8,1 0,-17.3 0,-34.7 0.1,-52 5.5,-0.4 8.2,-0.7 13.7,-1.2 0,17.4 0,34.8 -0.1,52.2 z"
         id="path132" />
    </g>
    <g
       id="g137">
      <path
         class="st0"
         d="m 683.5,247.4 c 24.7,-1.8 49.3,-3.6 74,-5.3 -0.1,46.8 -0.2,93.5 -0.4,140.3 -24.7,0.8 -49.4,1.6 -74.1,2.5 0.2,-45.8 0.3,-91.6 0.5,-137.4 z"
         id="path133" />
      <path
         class="st4"
         d="m 696.6,315.3 c -5.3,0.3 -8,0.4 -13.3,0.7 0,-22.9 0.2,-45.8 0.2,-68.6 5.3,-0.4 8,-0.6 13.3,-1 0,23 -0.2,45.9 -0.2,68.9 z"
         id="path134" />
      <path
         class="st4"
         d="m 737.1,313.2 c -5.5,0.3 -8.2,0.4 -13.6,0.7 0,-23.1 0.1,-46.3 0.2,-69.4 5.4,-0.4 8.1,-0.6 13.6,-1 0,23.2 -0.1,46.4 -0.2,69.7 z"
         id="path135" />
      <path
         class="st4"
         d="m 716.1,383.7 c -5.4,0.2 -8.1,0.3 -13.5,0.4 l 0.2,-69.1 c 5.4,-0.3 8.1,-0.4 13.5,-0.7 0,23.1 -0.1,46.3 -0.2,69.4 z"
         id="path136" />
      <path
         class="st4"
         d="m 757.1,382.3 c -5.5,0.2 -8.3,0.3 -13.8,0.5 0,-23.3 0.1,-46.6 0.2,-69.9 5.5,-0.3 8.2,-0.4 13.8,-0.7 l -0.2,70.2 z"
         id="path137" />
    </g>
    <g
       id="g142">
      <path
         class="st0"
         d="m 683,384.8 c 24.7,-0.8 49.4,-1.6 74.1,-2.5 -0.1,46.5 -0.2,93.1 -0.4,139.6 -24.7,-0.1 -49.5,-0.3 -74.2,-0.4 0.2,-45.6 0.3,-91.2 0.5,-136.8 z"
         id="path138" />
      <path
         class="st4"
         d="m 696.1,453.5 c -5.4,0 -8,0.1 -13.3,0.2 0,-23 0.2,-45.9 0.2,-68.9 5.3,-0.2 8,-0.3 13.3,-0.4 0,23 -0.2,46.1 -0.2,69.1 z"
         id="path139" />
      <path
         class="st4"
         d="m 736.7,452.9 c -5.5,0 -8.2,0.1 -13.6,0.2 0,-23.2 0.1,-46.4 0.2,-69.7 5.4,-0.2 8.2,-0.3 13.6,-0.5 0,23.3 -0.1,46.6 -0.2,69.9 z"
         id="path140" />
      <path
         class="st4"
         d="m 715.7,521.8 c -5.4,0 -8.1,0 -13.5,0 0,-22.8 0.1,-45.5 0.2,-68.3 5.4,0 8.1,-0.1 13.5,-0.2 0,22.8 -0.1,45.7 -0.2,68.5 z"
         id="path141" />
      <path
         class="st4"
         d="m 756.8,522 c -5.5,0 -8.3,0 -13.8,0 0,-23 0.1,-46 0.2,-69 5.5,0 8.3,-0.1 13.8,-0.2 0,23.1 -0.1,46.2 -0.2,69.3 z"
         id="path142" />
    </g>
    <g
       id="g145">
      <path
         class="st0"
         d="m 612.9,168.8 c 23.6,-2.3 47.3,-4.6 70.9,-6.8 l -0.3,85.4 c -23.7,1.7 -47.3,3.4 -71,5.1 z"
         id="path143" />
      <path
         class="st4"
         d="m 644.2,250.2 c -5.2,0.4 -7.8,0.6 -12.9,0.9 0,-16.8 0.1,-33.6 0.2,-50.4 5.1,-0.4 7.7,-0.7 12.9,-1.1 0,16.9 -0.1,33.7 -0.2,50.6 z"
         id="path144" />
      <path
         class="st4"
         d="m 683.5,247.4 c -5.3,0.4 -7.9,0.6 -13.2,1 0,-17 0.1,-34 0.2,-51 5.3,-0.4 7.9,-0.7 13.2,-1.1 0,17.1 -0.1,34.1 -0.2,51.2 z"
         id="path145" />
    </g>
    <g
       id="g150">
      <path
         class="st0"
         d="m 612.5,252.5 c 23.7,-1.7 47.3,-3.4 71,-5.1 -0.2,45.8 -0.3,91.6 -0.5,137.4 -23.7,0.8 -47.4,1.6 -71.1,2.4 0.2,-44.9 0.4,-89.8 0.6,-134.6 z"
         id="path146" />
      <path
         class="st4"
         d="m 625,319.1 c -5.1,0.3 -7.7,0.4 -12.8,0.7 0.1,-22.4 0.2,-44.8 0.3,-67.3 5.1,-0.4 7.6,-0.6 12.8,-0.9 0,22.5 -0.2,45 -0.3,67.5 z"
         id="path147" />
      <path
         class="st4"
         d="m 663.8,317.1 c -5.2,0.3 -7.9,0.4 -13.1,0.7 0,-22.7 0.2,-45.3 0.3,-68 5.2,-0.4 7.8,-0.6 13.1,-0.9 0,22.8 -0.2,45.5 -0.3,68.3 z"
         id="path148" />
      <path
         class="st4"
         d="m 643.7,386.1 c -5.2,0.2 -7.8,0.3 -12.9,0.4 0,-22.6 0.2,-45.2 0.3,-67.7 5.1,-0.3 7.7,-0.4 12.9,-0.7 0,22.7 -0.2,45.3 -0.3,68 z"
         id="path149" />
      <path
         class="st4"
         d="m 683,384.8 c -5.3,0.2 -8,0.3 -13.2,0.4 0,-22.8 0.2,-45.7 0.3,-68.5 5.3,-0.3 7.9,-0.4 13.2,-0.7 0,22.9 -0.2,45.8 -0.2,68.8 z"
         id="path150" />
    </g>
    <g
       id="g155">
      <path
         class="st0"
         d="m 611.9,387.2 c 23.7,-0.8 47.4,-1.6 71.1,-2.4 -0.2,45.6 -0.3,91.2 -0.5,136.8 -23.8,-0.1 -47.5,-0.3 -71.3,-0.4 0.2,-44.7 0.4,-89.3 0.6,-134 z"
         id="path151" />
      <path
         class="st4"
         d="m 624.4,454.5 c -5.1,0 -7.7,0.1 -12.8,0.2 0.1,-22.5 0.2,-45 0.3,-67.5 5.1,-0.2 7.7,-0.3 12.8,-0.4 0,22.6 -0.2,45.2 -0.3,67.8 z"
         id="path152" />
      <path
         class="st4"
         d="m 663.3,454 c -5.3,0 -7.9,0.1 -13.1,0.2 0,-22.8 0.2,-45.5 0.3,-68.3 5.2,-0.2 7.8,-0.3 13.1,-0.4 0,22.8 -0.2,45.7 -0.3,68.5 z"
         id="path153" />
      <path
         class="st4"
         d="m 643.1,521.4 c -5.2,0 -7.8,0 -12.9,0 0,-22.3 0.2,-44.6 0.3,-66.9 5.2,0 7.7,-0.1 12.9,-0.2 0,22.4 -0.2,44.7 -0.3,67.1 z"
         id="path154" />
      <path
         class="st4"
         d="m 682.5,521.6 c -5.3,0 -8,0 -13.2,0 0,-22.5 0.2,-45.1 0.3,-67.6 5.3,0 7.9,-0.1 13.2,-0.2 0,22.6 -0.2,45.3 -0.2,67.9 z"
         id="path155" />
    </g>
    <g
       id="g157">
      <path
         class="st0"
         d="m 571.1,172.4 c 13.9,-1.1 27.9,-2.3 41.8,-3.6 l -0.4,83.7 c -13.9,1 -27.9,2 -41.8,3 0.1,-27.7 0.3,-55.4 0.4,-83.1 z"
         id="path156" />
      <path
         class="st4"
         d="m 612.5,252.5 c -5.1,0.4 -7.6,0.6 -12.7,0.9 0,-16.7 0.2,-33.3 0.2,-50 5,-0.4 7.6,-0.7 12.7,-1.1 0,16.7 -0.2,33.4 -0.2,50.1 z"
         id="path157" />
    </g>
    <g
       id="g159">
      <path
         class="st0"
         d="m 570.7,255.6 c 13.9,-1 27.9,-2 41.8,-3 -0.2,44.9 -0.4,89.8 -0.6,134.6 l -41.9,1.4 c 0.2,-44.3 0.5,-88.7 0.7,-133 z"
         id="path158" />
      <path
         class="st4"
         d="m 611.9,387.2 c -5.1,0.2 -7.6,0.3 -12.7,0.4 0.1,-22.4 0.2,-44.8 0.3,-67.1 5.1,-0.3 7.6,-0.4 12.7,-0.7 -0.1,22.5 -0.2,44.9 -0.3,67.4 z"
         id="path159" />
    </g>
    <g
       id="g161">
      <path
         class="st0"
         d="m 570,388.6 41.9,-1.4 c -0.2,44.7 -0.4,89.3 -0.6,134 -14,0 -28,-0.1 -42,-0.2 0.2,-44.1 0.5,-88.3 0.7,-132.4 z"
         id="path160" />
      <path
         class="st4"
         d="m 611.3,521.2 c -5.1,0 -7.6,0 -12.7,0 0.1,-22.1 0.2,-44.2 0.3,-66.3 5.1,0 7.6,-0.1 12.7,-0.2 -0.1,22.2 -0.2,44.3 -0.3,66.5 z"
         id="path161" />
    </g>
  </g>
  <g
     class="st46"
     clip-path="url(#clippath-2)"
     id="g240"
     transform="translate(-200.1,-202.6)">
    <g
       class="st44"
       clip-path="url(#clippath-3)"
       id="g163">
      <path
         class="st3"
         d="m 1166.8,410.1 c -2.1,-1 -3.2,-1.5 -5.4,-2.6 0,-10.9 0,-11.6 0,-22.4 2.2,1.2 3.3,1.8 5.4,2.9 0,10.7 0,11.4 0,22.1 z"
         id="path162" />
      <path
         class="st3"
         d="m 1182,417.3 c -1.9,-0.9 -2.9,-1.4 -4.9,-2.3 0,-10.3 0,-11 0,-21.4 2,1 3,1.6 4.9,2.6 0,10.2 0,10.9 0,21 z"
         id="path163" />
    </g>
    <g
       class="st45"
       clip-path="url(#clippath-4)"
       id="g167">
      <path
         class="st3"
         d="m 1161.3,434.6 c -2.2,-0.9 -3.3,-1.3 -5.6,-2.2 v -27.6 c 2.3,1.1 3.4,1.6 5.6,2.6 0,9 0,18.1 0,27.1 z"
         id="path164" />
      <path
         class="st3"
         d="m 1176.9,440.8 c -2,-0.8 -3,-1.2 -5,-2 0,-8.8 0,-17.5 0,-26.3 2.1,1 3.1,1.5 5,2.4 0,8.6 0,17.2 0,25.9 z"
         id="path165" />
      <path
         class="st3"
         d="m 1166.8,463.5 c -2.1,-0.7 -3.2,-1 -5.4,-1.7 0,-9 0,-18.1 0,-27.1 2.2,0.9 3.3,1.3 5.4,2.1 z"
         id="path166" />
      <path
         class="st3"
         d="m 1182,468.2 c -1.9,-0.6 -2.9,-0.9 -4.9,-1.5 0,-8.6 0,-17.2 0,-25.8 2,0.8 3,1.2 4.9,1.9 0,8.5 0,17 0,25.4 z"
         id="path167" />
    </g>
    <g
       class="st51"
       clip-path="url(#clippath-5)"
       id="g171">
      <path
         class="st3"
         d="m 1161.2,488.9 c -2.2,-0.5 -3.3,-0.7 -5.6,-1.3 0,-9.2 0,-18.4 0,-27.6 2.3,0.7 3.4,1 5.6,1.7 0,9 0,18.1 0,27.1 z"
         id="path168" />
      <path
         class="st3"
         d="m 1176.9,492.5 c -2,-0.4 -3,-0.7 -5,-1.1 0,-8.8 0,-17.5 0,-26.3 2.1,0.6 3.1,0.9 5,1.6 0,8.6 0,17.2 0,25.9 z"
         id="path169" />
      <path
         class="st3"
         d="m 1166.7,516.9 c -2.1,-0.3 -3.2,-0.5 -5.4,-0.8 0,-9 0,-18.1 0,-27.1 2.2,0.5 3.3,0.7 5.4,1.2 z"
         id="path170" />
      <path
         class="st3"
         d="m 1182,519.1 c -1.9,-0.3 -2.9,-0.4 -4.9,-0.7 0,-8.6 0,-17.2 0,-25.8 2,0.4 3,0.7 4.9,1.1 0,8.5 0,17 0,25.4 z"
         id="path171" />
    </g>
    <g
       class="st48"
       clip-path="url(#clippath-6)"
       id="g173">
      <path
         class="st3"
         d="m 1161.2,543.1 c -2.2,-0.1 -3.3,-0.2 -5.6,-0.3 0,-9.2 0,-18.3 0,-27.5 2.3,0.3 3.4,0.5 5.6,0.8 0,9 0,18 0,27 z"
         id="path172" />
      <path
         class="st3"
         d="m 1176.9,544.1 c -2,-0.1 -3,-0.2 -5,-0.3 0,-8.7 0,-17.4 0,-26.1 2.1,0.3 3.1,0.4 5,0.7 0,8.6 0,17.2 0,25.7 z"
         id="path173" />
    </g>
    <g
       class="st47"
       clip-path="url(#clippath-7)"
       id="g175">
      <path
         class="st3"
         d="m 1134.9,395 c -2.6,-1.2 -3.9,-1.8 -6.5,-3.1 0,-8.2 0,-16.5 0,-24.7 2.6,1.4 3.9,2.2 6.5,3.5 0,8.1 0,16.2 0,24.3 z"
         id="path174" />
      <path
         class="st3"
         d="m 1153.3,403.7 c -2.3,-1.1 -3.5,-1.6 -5.8,-2.8 0,-11.3 0,-12.1 0,-23.4 2.4,1.3 3.5,2 5.8,3.2 0,11.1 0,11.9 0,23 z"
         id="path175" />
    </g>
    <g
       class="st50"
       clip-path="url(#clippath-8)"
       id="g179">
      <path
         class="st3"
         d="m 1128.3,421.7 c -2.7,-1 -4,-1.6 -6.7,-2.6 0,-10.1 0,-20.3 0,-30.4 2.8,1.3 4.1,1.9 6.7,3.2 0,10 0,19.9 0,29.9 z"
         id="path176" />
      <path
         class="st3"
         d="m 1147.1,429.1 c -2.4,-0.9 -3.6,-1.4 -6.1,-2.4 0,-9.6 0,-19.2 0,-28.8 2.5,1.2 3.7,1.7 6.1,2.9 0,9.4 0,18.9 0,28.3 z"
         id="path177" />
      <path
         class="st3"
         d="m 1134.9,453.6 c -2.6,-0.8 -3.9,-1.2 -6.5,-2 0,-10 0,-19.9 0,-29.9 2.6,1 3.9,1.5 6.5,2.5 v 29.3 z"
         id="path178" />
      <path
         class="st3"
         d="m 1153.3,459.3 c -2.3,-0.7 -3.5,-1.1 -5.8,-1.8 0,-9.4 0,-18.9 0,-28.3 2.4,0.9 3.5,1.4 5.8,2.3 0,9.3 0,18.5 0,27.8 z"
         id="path179" />
    </g>
    <g
       class="st49"
       clip-path="url(#clippath-9)"
       id="g183">
      <path
         class="st3"
         d="m 1128.3,481.5 c -2.7,-0.6 -4,-0.9 -6.8,-1.5 0,-10.1 0,-20.3 0,-30.4 2.8,0.9 4.1,1.3 6.7,2.1 0,10 0,19.9 0,29.9 z"
         id="path180" />
      <path
         class="st3"
         d="m 1147.1,485.7 c -2.4,-0.5 -3.6,-0.8 -6.1,-1.4 0,-9.6 0,-19.2 0,-28.8 2.5,0.8 3.7,1.1 6.1,1.9 0,9.4 0,18.9 0,28.3 z"
         id="path181" />
      <path
         class="st3"
         d="m 1134.9,512.3 c -2.6,-0.4 -3.9,-0.6 -6.5,-0.9 0,-10 0,-19.9 0,-29.9 2.6,0.6 3.9,0.9 6.5,1.5 0,9.8 0,19.6 0,29.3 z"
         id="path182" />
      <path
         class="st3"
         d="m 1153.3,514.9 c -2.3,-0.3 -3.5,-0.5 -5.8,-0.8 v -28.3 c 2.4,0.5 3.6,0.8 5.9,1.3 0,9.3 0,18.5 0,27.8 z"
         id="path183" />
    </g>
    <g
       class="st10"
       clip-path="url(#clippath-10)"
       id="g185">
      <path
         class="st3"
         d="m 1128.2,541.1 c -2.7,-0.2 -4,-0.2 -6.8,-0.4 0,-10.1 0,-20.2 0,-30.3 2.8,0.4 4.1,0.6 6.8,1 0,9.9 0,19.8 0,29.7 z"
         id="path184" />
      <path
         class="st3"
         d="m 1147.1,542.2 c -2.4,-0.1 -3.6,-0.2 -6.1,-0.4 0,-9.6 0,-19.1 0,-28.7 2.5,0.4 3.7,0.5 6.1,0.9 0,9.4 0,18.8 0,28.2 z"
         id="path185" />
    </g>
    <g
       class="st7"
       clip-path="url(#clippath-11)"
       id="g187">
      <path
         class="st3"
         d="m 1096.2,376.6 c -3.1,-1.5 -4.8,-2.3 -8,-3.8 0,-9.2 0,-18.3 0,-27.5 3.3,1.7 4.9,2.7 8,4.4 0,9 0,17.9 0,26.9 z"
         id="path186" />
      <path
         class="st3"
         d="m 1118.6,387.2 c -2.8,-1.3 -4.2,-2 -7.1,-3.4 v -25.9 c 2.9,1.5 4.3,2.4 7.1,3.9 0,8.5 0,16.9 0,25.4 z"
         id="path187" />
    </g>
    <g
       class="st14"
       clip-path="url(#clippath-12)"
       id="g191">
      <path
         class="st3"
         d="m 1087.9,405.9 c -3.3,-1.3 -5,-1.9 -8.4,-3.3 0,-11.3 0,-22.6 0,-33.9 3.4,1.6 5.1,2.4 8.4,4 z"
         id="path188" />
      <path
         class="st3"
         d="m 1111.1,415 c -2.9,-1.1 -4.4,-1.7 -7.4,-2.9 0,-10.6 0,-21.3 0,-31.9 3,1.4 4.5,2.1 7.4,3.5 0,10.4 0,20.9 0,31.3 z"
         id="path189" />
      <path
         class="st3"
         d="m 1096.2,441.6 c -3.1,-1 -4.8,-1.5 -8,-2.5 0,-11.1 0,-22.1 0,-33.2 3.3,1.3 4.9,1.9 8,3.1 0,10.8 0,21.7 0,32.5 z"
         id="path190" />
      <path
         class="st3"
         d="m 1118.6,448.6 c -2.8,-0.9 -4.2,-1.3 -7.1,-2.2 0,-10.4 0,-20.8 0,-31.3 2.9,1.1 4.3,1.7 7.1,2.8 0,10.2 0,20.5 0,30.7 z"
         id="path191" />
    </g>
    <g
       class="st12"
       clip-path="url(#clippath-13)"
       id="g195">
      <path
         class="st3"
         d="m 1087.9,472.3 c -3.3,-0.7 -5,-1.1 -8.4,-1.9 0,-11.3 0,-22.6 0,-33.9 3.4,1.1 5.1,1.6 8.4,2.6 0,11.1 0,22.1 0,33.2 z"
         id="path192" />
      <path
         class="st3"
         d="m 1111.1,477.6 c -2.9,-0.7 -4.4,-1 -7.4,-1.7 0,-10.6 0,-21.3 0,-31.9 3,0.9 4.5,1.4 7.4,2.3 0,10.4 0,20.9 0,31.3 z"
         id="path193" />
      <path
         class="st3"
         d="m 1096.1,506.7 c -3.1,-0.5 -4.8,-0.7 -8,-1.2 0,-11.1 0,-22.1 0,-33.2 3.3,0.7 4.9,1.1 8,1.8 0,10.8 0,21.7 0,32.5 z"
         id="path194" />
      <path
         class="st3"
         d="m 1118.6,510 c -2.8,-0.4 -4.2,-0.6 -7.1,-1 0,-10.4 0,-20.8 0,-31.3 2.9,0.7 4.3,1 7.1,1.6 0,10.2 0,20.5 0,30.7 z"
         id="path195" />
    </g>
    <g
       class="st13"
       clip-path="url(#clippath-14)"
       id="g197">
      <path
         class="st3"
         d="m 1087.9,538.6 c -3.3,-0.2 -5,-0.3 -8.4,-0.5 0,-11.2 0,-22.5 0,-33.7 3.4,0.5 5.1,0.7 8.4,1.2 0,11 0,22 0,33.1 z"
         id="path196" />
      <path
         class="st3"
         d="m 1111.1,540 c -2.9,-0.2 -4.4,-0.3 -7.4,-0.5 0,-10.6 0,-21.2 0,-31.8 3,0.4 4.5,0.6 7.4,1.1 0,10.4 0,20.8 0,31.1 z"
         id="path197" />
    </g>
    <g
       class="st11"
       clip-path="url(#clippath-15)"
       id="g199">
      <path
         class="st3"
         d="m 1047.9,353.6 c -4,-1.9 -6,-2.8 -10.1,-4.8 0,-10.3 0,-20.6 0,-30.9 4.1,2.2 6.2,3.4 10.1,5.5 0,10.1 0,20.1 0,30.2 z"
         id="path198" />
      <path
         class="st3"
         d="m 1075.9,367 c -3.5,-1.7 -5.3,-2.5 -8.9,-4.2 0,-9.6 0,-19.3 0,-28.9 3.6,1.9 5.4,3 8.9,4.8 0,9.4 0,18.9 0,28.3 z"
         id="path199" />
    </g>
    <g
       class="st8"
       clip-path="url(#clippath-16)"
       id="g203">
      <path
         class="st3"
         d="m 1037.5,386.1 c -4.1,-1.6 -6.3,-2.5 -10.6,-4.2 v -38.3 c 4.4,2.1 6.5,3.1 10.6,5 0,12.5 0,24.9 0,37.4 z"
         id="path200" />
      <path
         class="st3"
         d="m 1066.6,397.5 c -3.6,-1.4 -5.5,-2.2 -9.3,-3.6 0,-11.9 0,-23.8 0,-35.7 3.8,1.8 5.6,2.7 9.3,4.4 0,11.7 0,23.3 0,35 z"
         id="path201" />
      <path
         class="st3"
         d="m 1047.8,426.7 c -4,-1.2 -6,-1.8 -10.1,-3.1 0,-12.5 0,-24.9 0,-37.4 4.1,1.6 6.2,2.4 10.1,4 0,12.2 0,24.4 0,36.5 z"
         id="path202" />
      <path
         class="st3"
         d="m 1075.9,435.4 c -3.5,-1.1 -5.3,-1.6 -8.9,-2.7 0,-11.6 0,-23.3 0,-34.9 3.6,1.4 5.4,2.1 8.9,3.5 0,11.4 0,22.8 0,34.2 z"
         id="path203" />
    </g>
    <g
       class="st5"
       clip-path="url(#clippath-17)"
       id="g207">
      <path
         class="st3"
         d="m 1037.5,460.9 c -4.1,-0.9 -6.3,-1.4 -10.6,-2.4 0,-12.8 0,-25.5 0,-38.3 4.4,1.3 6.5,2 10.6,3.3 0,12.5 0,24.9 0,37.4 z"
         id="path204" />
      <path
         class="st3"
         d="m 1066.6,467.5 c -3.6,-0.8 -5.5,-1.2 -9.3,-2.1 v -35.7 c 3.8,1.2 5.7,1.7 9.3,2.9 0,11.7 0,23.3 0,35 z"
         id="path205" />
      <path
         class="st3"
         d="m 1047.8,499.8 c -4,-0.6 -6,-0.9 -10.1,-1.5 0,-12.5 0,-24.9 0,-37.4 4.1,0.9 6.2,1.4 10.1,2.3 0,12.2 0,24.4 0,36.5 z"
         id="path206" />
      <path
         class="st3"
         d="m 1075.9,503.8 c -3.5,-0.5 -5.3,-0.8 -8.9,-1.3 0,-11.6 0,-23.3 0,-34.9 3.6,0.8 5.4,1.2 8.9,2 0,11.4 0,22.8 0,34.2 z"
         id="path207" />
    </g>
    <g
       class="st9"
       clip-path="url(#clippath-18)"
       id="g209">
      <path
         class="st3"
         d="m 1037.4,535.5 c -4.1,-0.3 -6.3,-0.4 -10.6,-0.7 0,-12.7 0,-25.4 0,-38.1 4.4,0.6 6.5,0.9 10.6,1.5 0,12.4 0,24.8 0,37.2 z"
         id="path208" />
      <path
         class="st3"
         d="m 1066.5,537.3 c -3.6,-0.2 -5.5,-0.3 -9.3,-0.6 0,-11.9 0,-23.7 0,-35.6 3.8,0.5 5.6,0.8 9.3,1.3 0,11.6 0,23.2 0,34.8 z"
         id="path209" />
    </g>
    <g
       class="st6"
       clip-path="url(#clippath-19)"
       id="g211">
      <path
         class="st3"
         d="m 986,324.3 c -5.2,-2.5 -7.8,-3.7 -13.2,-6.3 0,-11.8 0,-23.6 0,-35.4 5.4,2.9 8.1,4.5 13.2,7.2 0,11.5 0,23 0,34.4 z"
         id="path210" />
      <path
         class="st3"
         d="m 1022.3,341.5 c -4.4,-2.1 -6.7,-3.2 -11.4,-5.4 0,-10.9 0,-21.8 0,-32.7 4.7,2.5 6.9,3.8 11.4,6.2 0,10.7 0,21.3 0,32 z"
         id="path211" />
    </g>
    <g
       class="st29"
       clip-path="url(#clippath-20)"
       id="g215">
      <path
         class="st3"
         d="m 972.4,360.6 c -5.4,-2.1 -8.2,-3.2 -13.9,-5.5 0,-14.6 0,-29.3 0,-43.9 5.7,2.7 8.5,4 13.9,6.6 0,14.3 0,28.5 0,42.8 z"
         id="path212" />
      <path
         class="st3"
         d="m 1010.2,375.4 c -4.7,-1.8 -7.1,-2.8 -12,-4.7 0,-13.5 0,-27.1 0,-40.6 4.9,2.3 7.3,3.5 12,5.7 0,13.2 0,26.4 0,39.6 z"
         id="path213" />
      <path
         class="st3"
         d="m 986,407.6 c -5.2,-1.6 -7.8,-2.4 -13.2,-4.1 0,-14.2 0,-28.5 0,-42.7 5.4,2.1 8.1,3.2 13.2,5.2 0,13.9 0,27.8 0,41.6 z"
         id="path214" />
      <path
         class="st3"
         d="m 1022.2,418.8 c -4.4,-1.4 -6.7,-2.1 -11.4,-3.5 0,-13.2 0,-26.4 0,-39.6 4.7,1.8 6.9,2.7 11.4,4.5 0,12.9 0,25.8 0,38.6 z"
         id="path215" />
    </g>
    <g
       class="st30"
       clip-path="url(#clippath-21)"
       id="g219">
      <path
         class="st3"
         d="m 972.4,446.2 c -5.4,-1.2 -8.2,-1.9 -13.9,-3.2 0,-14.6 0,-29.3 0,-43.9 5.7,1.8 8.5,2.6 13.9,4.3 0,14.3 0,28.5 0,42.8 z"
         id="path216" />
      <path
         class="st3"
         d="m 1010.2,454.7 c -4.7,-1.1 -7.1,-1.6 -12,-2.7 0,-13.5 0,-27.1 0,-40.6 4.9,1.5 7.3,2.3 12,3.7 0,13.2 0,26.4 0,39.6 z"
         id="path217" />
      <path
         class="st3"
         d="m 986,490.9 c -5.2,-0.7 -7.8,-1.1 -13.2,-1.9 0,-14.2 0,-28.5 0,-42.7 5.4,1.2 8.1,1.8 13.2,3 0,13.9 0,27.8 0,41.6 z"
         id="path218" />
      <path
         class="st3"
         d="m 1022.2,496.1 c -4.4,-0.6 -6.7,-1 -11.4,-1.6 0,-13.2 0,-26.4 0,-39.6 4.7,1.1 6.9,1.6 11.4,2.6 0,12.9 0,25.8 0,38.6 z"
         id="path219" />
    </g>
    <g
       class="st31"
       clip-path="url(#clippath-22)"
       id="g221">
      <path
         class="st3"
         d="m 972.4,531.5 c -5.4,-0.3 -8.2,-0.5 -13.9,-0.9 0,-14.6 0,-29.1 0,-43.7 5.7,0.8 8.5,1.2 13.9,2 0,14.2 0,28.4 0,42.6 z"
         id="path220" />
      <path
         class="st3"
         d="m 1010.2,533.8 c -4.7,-0.3 -7.1,-0.4 -12,-0.7 0,-13.5 0,-27 0,-40.4 4.9,0.7 7.3,1.1 12,1.7 0,13.1 0,26.3 0,39.4 z"
         id="path221" />
    </g>
    <g
       class="st32"
       clip-path="url(#clippath-23)"
       id="g223">
      <path
         class="st3"
         d="m 904.2,285.4 c -7,-3.3 -10.5,-5 -18,-8.5 0,-13.8 0,-27.5 0,-41.3 7.4,3.9 11,6.1 18,9.8 0,13.3 0,26.7 0,40 z"
         id="path222" />
      <path
         class="st3"
         d="m 952.4,308.3 c -5.8,-2.8 -8.8,-4.2 -15,-7.1 0,-12.6 0,-25.2 0,-37.8 6.2,3.3 9.2,5.1 15,8.2 0,12.2 0,24.5 0,36.7 z"
         id="path223" />
    </g>
    <g
       class="st33"
       clip-path="url(#clippath-24)"
       id="g227">
      <path
         class="st3"
         d="m 885.8,326.6 c -7.4,-2.9 -11.3,-4.4 -19.2,-7.5 v -51.5 c 7.9,3.8 11.8,5.6 19.2,9.1 0,16.6 0,33.3 0,49.9 z"
         id="path224" />
      <path
         class="st3"
         d="m 936.6,346.6 c -6.2,-2.4 -9.4,-3.7 -15.9,-6.2 0,-15.7 0,-31.4 0,-47 6.6,3.1 9.7,4.6 15.9,7.6 0,15.2 0,30.5 0,45.7 z"
         id="path225" />
      <path
         class="st3"
         d="m 904.1,382.3 c -7,-2.2 -10.5,-3.3 -18,-5.6 v -49.9 c 7.4,2.9 11,4.3 18,7 v 48.4 z"
         id="path226" />
      <path
         class="st3"
         d="m 952.4,397.2 c -5.8,-1.8 -8.8,-2.7 -15,-4.6 0,-15.2 0,-30.4 0,-45.7 6.2,2.4 9.2,3.6 15,5.9 0,14.8 0,29.6 0,44.4 z"
         id="path227" />
    </g>
    <g
       class="st34"
       clip-path="url(#clippath-25)"
       id="g231">
      <path
         class="st3"
         d="m 885.7,426.5 c -7.4,-1.7 -11.3,-2.5 -19.2,-4.3 0,-17.2 0,-34.3 0,-51.5 7.9,2.4 11.7,3.6 19.2,5.9 0,16.6 0,33.3 0,49.9 z"
         id="path228" />
      <path
         class="st3"
         d="m 936.6,438 c -6.2,-1.4 -9.4,-2.1 -15.9,-3.6 0,-15.7 0,-31.4 0,-47.1 6.6,2 9.7,3 15.9,4.9 0,15.2 0,30.5 0,45.7 z"
         id="path229" />
      <path
         class="st3"
         d="m 904.1,479.1 c -7,-1 -10.5,-1.5 -18,-2.6 0,-16.6 0,-33.3 0,-49.9 7.4,1.7 11,2.5 18,4.1 z"
         id="path230" />
      <path
         class="st3"
         d="m 952.4,486 c -5.8,-0.8 -8.8,-1.3 -15,-2.2 v -45.7 c 6.2,1.4 9.2,2.1 15,3.4 0,14.8 0,29.6 0,44.4 z"
         id="path231" />
    </g>
    <g
       class="st27"
       clip-path="url(#clippath-26)"
       id="g233">
      <path
         class="st3"
         d="m 885.7,526.2 c -7.4,-0.5 -11.3,-0.7 -19.2,-1.2 0,-17.1 0,-34.2 0,-51.3 7.9,1.1 11.7,1.7 19.2,2.8 0,16.6 0,33.1 0,49.7 z"
         id="path232" />
      <path
         class="st3"
         d="m 936.5,529.3 c -6.2,-0.4 -9.4,-0.6 -15.9,-1 0,-15.6 0,-31.2 0,-46.8 6.6,0.9 9.7,1.4 15.9,2.3 0,15.2 0,30.3 0,45.5 z"
         id="path233" />
    </g>
    <g
       class="st25"
       clip-path="url(#clippath-27)"
       id="g234">
      <path
         class="st3"
         d="m 858.2,263.6 c -8.1,-3.9 -12.3,-5.9 -21,-10 0,-14.9 0,-29.8 0,-44.6 8.7,4.6 12.9,7.1 21,11.4 0,14.4 0,28.8 0,43.2 z"
         id="path234" />
    </g>
    <g
       class="st28"
       clip-path="url(#clippath-28)"
       id="g236">
      <path
         class="st3"
         d="m 836,307.1 c -7.5,-2.9 -15,-5.9 -22.5,-8.8 0,-18.6 0,-37.3 0,-55.9 l 22.5,10.7 c 0,18 0,36 0,54 z"
         id="path235" />
      <path
         class="st3"
         d="m 858.2,368.1 c -8.1,-2.5 -12.3,-3.8 -21,-6.5 0,-18 0,-36 0,-54 8.7,3.4 12.9,5 21,8.2 0,17.4 0,34.8 0,52.2 z"
         id="path236" />
    </g>
    <g
       class="st26"
       clip-path="url(#clippath-29)"
       id="g238">
      <path
         class="st3"
         d="m 836,415.3 c -8.7,-2 -13.2,-3 -22.5,-5.1 0,-18.6 0,-37.3 0,-55.9 9.3,2.9 13.8,4.3 22.5,7 0,18 0,36 0,54.1 z"
         id="path237" />
      <path
         class="st3"
         d="m 858.1,472.5 c -8.1,-1.2 -12.3,-1.8 -21,-3 0,-18 0,-36 0,-54 8.7,2 12.9,2.9 21,4.8 0,17.4 0,34.8 0,52.2 z"
         id="path238" />
    </g>
    <g
       class="st21"
       clip-path="url(#clippath-30)"
       id="g239">
      <path
         class="st3"
         d="m 836,523.1 c -8.7,-0.5 -13.2,-0.8 -22.5,-1.4 0,-18.5 0,-37.1 0,-55.6 9.3,1.3 13.8,2 22.5,3.2 0,17.9 0,35.9 0,53.8 z"
         id="path239" />
    </g>
  </g>
  <g
     class="st15"
     clip-path="url(#clippath-31)"
     id="g282"
     transform="translate(-200.1,-202.6)">
    <g
       class="st16"
       clip-path="url(#clippath-32)"
       id="g241">
      <path
         class="st3"
         d="m 556.5,333.6 c -4.5,-1 -6.7,-1.6 -11.3,-2.6 0,-15 0,-30 -0.1,-45 4.6,1.2 6.8,1.9 11.3,3.1 v 44.5 z"
         id="path240" />
      <path
         class="st3"
         d="m 589.3,341.2 c -4.2,-1 -6.3,-1.5 -10.6,-2.4 v -43.5 c 4.1,1.1 6.3,1.8 10.5,2.9 0,14.4 0,28.7 0.1,43.1 z"
         id="path241" />
    </g>
    <g
       class="st17"
       clip-path="url(#clippath-33)"
       id="g245">
      <path
         class="st3"
         d="m 545,384.9 c -4.6,-0.8 -6.9,-1.2 -11.6,-2.1 0,-18.2 0,-36.3 -0.1,-54.5 4.7,1.1 7,1.6 11.6,2.7 0,18 0.1,35.9 0.2,53.9 z"
         id="path242" />
      <path
         class="st3"
         d="m 578.3,390.8 c -4.3,-0.8 -6.5,-1.2 -10.9,-1.9 0,-17.6 -0.1,-35.2 -0.2,-52.7 4.4,1 6.6,1.5 10.8,2.5 0,17.4 0.1,34.8 0.2,52.2 z"
         id="path243" />
      <path
         class="st3"
         d="m 556.8,440.3 c -4.5,-0.6 -6.8,-0.9 -11.3,-1.4 0,-18 -0.1,-36 -0.2,-54 4.6,0.8 6.8,1.2 11.3,2 0,17.8 0.1,35.6 0.2,53.4 z"
         id="path244" />
      <path
         class="st3"
         d="m 589.7,444.5 c -4.2,-0.5 -6.3,-0.8 -10.6,-1.3 0,-17.4 -0.1,-34.8 -0.2,-52.2 4.3,0.8 6.4,1.1 10.6,1.9 0,17.2 0.1,34.4 0.2,51.7 z"
         id="path245" />
    </g>
    <g
       class="st18"
       clip-path="url(#clippath-34)"
       id="g249">
      <path
         class="st3"
         d="m 545.4,492.9 c -4.6,-0.3 -6.9,-0.5 -11.6,-0.9 0,-18.2 0,-36.4 -0.1,-54.6 4.7,0.6 7,0.9 11.6,1.5 0,18 0.1,36 0.2,54 z"
         id="path246" />
      <path
         class="st3"
         d="m 578.7,495.4 c -4.3,-0.3 -6.5,-0.5 -10.9,-0.8 l -0.2,-52.9 c 4.4,0.6 6.6,0.8 10.9,1.4 0,17.4 0.1,34.9 0.2,52.3 z"
         id="path247" />
      <path
         class="st3"
         d="m 557.1,547.3 c -4.5,-0.1 -6.8,-0.2 -11.3,-0.3 0,-18 -0.1,-36.1 -0.2,-54.1 4.6,0.3 6.9,0.5 11.3,0.8 0,17.8 0.1,35.7 0.2,53.5 z"
         id="path248" />
      <path
         class="st3"
         d="m 590,548 c -4.2,0 -6.3,-0.1 -10.6,-0.2 0,-17.5 -0.1,-34.9 -0.2,-52.4 4.3,0.3 6.4,0.5 10.6,0.8 0,17.3 0.1,34.5 0.2,51.8 z"
         id="path249" />
    </g>
    <g
       class="st19"
       clip-path="url(#clippath-35)"
       id="g251">
      <path
         class="st3"
         d="m 545.6,585.7 c -4.6,0 -6.9,0.2 -11.6,0.2 v -39.1 c 4.6,0.1 6.9,0.2 11.5,0.3 v 38.7 z"
         id="path250" />
      <path
         class="st3"
         d="m 578.9,585.2 c -4.3,0 -6.5,0.2 -10.9,0.2 0,-12.6 0,-25.2 -0.1,-37.8 4.4,0 6.6,0.1 10.9,0.2 0,12.5 0,25 0.1,37.4 z"
         id="path251" />
    </g>
    <g
       class="st22"
       clip-path="url(#clippath-36)"
       id="g253">
      <path
         class="st3"
         d="m 491.3,318.6 c -5.1,-1.2 -7.6,-1.8 -12.8,-2.9 0,-15.9 0,-31.9 0,-47.8 5.2,1.4 7.7,2.2 12.8,3.5 v 47.3 z"
         id="path252" />
      <path
         class="st3"
         d="m 528.4,327.2 c -4.7,-1.1 -7.1,-1.6 -12,-2.8 v -46.2 c 4.7,1.3 7.1,2 11.8,3.3 0,15.2 0,30.5 0.1,45.7 z"
         id="path253" />
    </g>
    <g
       class="st23"
       clip-path="url(#clippath-37)"
       id="g257">
      <path
         class="st3"
         d="m 478.3,373 c -5.2,-0.9 -7.8,-1.4 -13.1,-2.3 0,-19.3 0,-38.7 -0.1,-58 5.3,1.2 7.9,1.8 13.1,3 v 57.4 z"
         id="path254" />
      <path
         class="st3"
         d="m 515.9,379.7 c -4.8,-0.9 -7.3,-1.3 -12.2,-2.2 0,-18.7 0,-37.4 -0.1,-56 5,1.1 7.4,1.7 12.2,2.8 0,18.5 0,36.9 0.1,55.4 z"
         id="path255" />
      <path
         class="st3"
         d="m 491.6,432.1 c -5.1,-0.6 -7.6,-1 -12.8,-1.6 0,-19.1 0,-38.3 -0.1,-57.4 5.2,0.9 7.8,1.4 12.8,2.3 0,18.9 0,37.8 0.1,56.8 z"
         id="path256" />
      <path
         class="st3"
         d="m 528.7,436.8 c -4.7,-0.6 -7.1,-0.9 -12,-1.5 0,-18.5 0,-37 -0.1,-55.5 4.8,0.9 7.2,1.3 12,2.1 0,18.3 0,36.6 0.1,54.8 z"
         id="path257" />
    </g>
    <g
       class="st24"
       clip-path="url(#clippath-38)"
       id="g261">
      <path
         class="st3"
         d="m 478.6,487.9 c -5.2,-0.4 -7.8,-0.6 -13.1,-1 0,-19.4 0,-38.8 -0.1,-58.2 5.3,0.7 7.9,1 13.1,1.7 0,19.2 0,38.3 0.1,57.5 z"
         id="path258" />
      <path
         class="st3"
         d="m 516.2,490.8 c -4.8,-0.4 -7.3,-0.5 -12.3,-0.9 0,-18.7 0,-37.5 -0.1,-56.2 5,0.6 7.4,0.9 12.3,1.5 0,18.5 0,37 0.1,55.6 z"
         id="path259" />
      <path
         class="st3"
         d="m 491.8,545.8 c -5.1,-0.1 -7.6,-0.2 -12.8,-0.3 0,-19.2 0,-38.4 -0.1,-57.6 5.2,0.4 7.8,0.6 12.8,1 0,19 0,37.9 0.1,56.9 z"
         id="path260" />
      <path
         class="st3"
         d="m 529,546.7 c -4.7,-0.1 -7.1,-0.2 -12,-0.3 0,-18.5 0,-37.1 -0.1,-55.6 4.8,0.4 7.2,0.5 12,0.9 0,18.3 0,36.7 0.1,55 z"
         id="path261" />
    </g>
    <g
       class="st20"
       clip-path="url(#clippath-39)"
       id="g263">
      <path
         class="st3"
         d="m 478.8,586.7 c -5.2,0 -7.8,0.2 -13.2,0.2 0,-13.9 0,-27.8 0,-41.6 5.3,0.1 8,0.2 13.2,0.3 0,13.7 0,27.4 0,41.2 z"
         id="path262" />
      <path
         class="st3"
         d="m 516.4,586.2 c -4.9,0 -7.3,0.2 -12.3,0.2 0,-13.4 0,-26.8 0,-40.2 5,0.1 7.4,0.2 12.3,0.3 0,13.3 0,26.5 0.1,39.8 z"
         id="path263" />
    </g>
    <g
       class="st40"
       clip-path="url(#clippath-40)"
       id="g265">
      <path
         class="st3"
         d="m 417.4,301.6 c -5.8,-1.3 -8.7,-2 -14.6,-3.4 0,-17 0,-34.1 0,-51.1 5.9,1.6 8.8,2.5 14.6,4 0,16.8 0,33.6 0,50.5 z"
         id="path264" />
      <path
         class="st3"
         d="m 459.5,311.3 c -5.4,-1.2 -8.1,-1.9 -13.6,-3.1 0,-16.4 0,-32.8 0,-49.2 5.5,1.5 8.2,2.3 13.6,3.7 v 48.7 z"
         id="path265" />
    </g>
    <g
       class="st35"
       clip-path="url(#clippath-41)"
       id="g269">
      <path
         class="st3"
         d="m 402.5,359.5 c -5.9,-1.1 -8.9,-1.6 -15,-2.7 0,-20.7 0,-41.4 0,-62 6.1,1.4 9.1,2.1 15,3.5 0,20.4 0,40.8 0,61.3 z"
         id="path266" />
      <path
         class="st3"
         d="m 445.3,367.1 c -5.5,-1 -8.3,-1.5 -13.9,-2.5 v -59.8 c 5.5,1.3 8.3,1.9 13.8,3.2 0,19.7 0,39.4 0,59.1 z"
         id="path267" />
      <path
         class="st3"
         d="m 417.5,422.7 c -5.8,-0.7 -8.7,-1.1 -14.6,-1.9 0,-20.4 0,-40.9 0,-61.3 5.9,1.1 8.8,1.6 14.6,2.6 0,20.2 0,40.4 0,60.6 z"
         id="path268" />
      <path
         class="st3"
         d="m 459.7,428.1 c -5.4,-0.7 -8.1,-1 -13.6,-1.7 0,-19.7 0,-39.4 0,-59.1 5.5,1 8.2,1.5 13.6,2.4 0,19.5 0,38.9 0.1,58.4 z"
         id="path269" />
    </g>
    <g
       class="st36"
       clip-path="url(#clippath-42)"
       id="g273">
      <path
         class="st3"
         d="m 402.6,482.3 c -5.9,-0.4 -8.9,-0.7 -15,-1.1 0,-20.7 0,-41.5 0,-62.2 6.1,0.8 9.1,1.1 15,1.9 0,20.5 0,41 0,61.5 z"
         id="path270" />
      <path
         class="st3"
         d="m 445.5,485.5 c -5.5,-0.4 -8.3,-0.6 -13.9,-1 0,-20 0,-40 0,-60 5.6,0.7 8.4,1.1 13.9,1.8 z"
         id="path271" />
      <path
         class="st3"
         d="M 417.7,544.2 C 411.9,544.1 409,544 403,543.9 v -61.5 c 5.9,0.4 8.8,0.7 14.6,1.1 0,20.3 0,40.5 0,60.8 z"
         id="path272" />
      <path
         class="st3"
         d="m 459.9,545.1 c -5.4,-0.1 -8.1,-0.2 -13.6,-0.3 0,-19.8 0,-39.5 0,-59.3 5.5,0.4 8.2,0.6 13.6,1 0,19.5 0,39 0.1,58.6 z"
         id="path273" />
    </g>
    <g
       class="st37"
       clip-path="url(#clippath-43)"
       id="g275">
      <path
         class="st3"
         d="m 402.7,587.8 c -5.9,0 -9,0.2 -15,0.2 0,-14.8 0,-29.7 0,-44.5 6.1,0.1 9.1,0.2 15,0.3 0,14.7 0,29.3 0,44 z"
         id="path274" />
      <path
         class="st3"
         d="m 445.7,587.2 c -5.5,0 -8.3,0.2 -14,0.2 0,-14.3 0,-28.6 0,-42.9 5.7,0.1 8.4,0.2 14,0.3 0,14.1 0,28.3 0,42.4 z"
         id="path275" />
    </g>
    <g
       class="st38"
       clip-path="url(#clippath-44)"
       id="g276">
      <path
         class="st3"
         d="m 381,293.3 c -6.1,-1.4 -9.2,-2.1 -15.5,-3.6 0,-17.6 0,-35.1 0,-52.7 6.3,1.7 9.4,2.6 15.5,4.2 0,17.3 0,34.7 0,52 z"
         id="path276" />
    </g>
    <g
       class="st39"
       clip-path="url(#clippath-45)"
       id="g278">
      <path
         class="st3"
         d="m 364.7,352.7 c -6.3,-1.1 -7.5,-1.3 -13.9,-2.5 0,-21.3 0,-42.6 0,-63.9 6.4,1.5 7.6,1.7 13.9,3.2 0,21.1 0,42.1 0,63.2 z"
         id="path277" />
      <path
         class="st3"
         d="m 381.1,418.1 c -6.1,-0.8 -9.3,-1.2 -15.6,-2 v -63.3 c 6.3,1.1 9.4,1.7 15.5,2.8 0,20.8 0,41.6 0,62.5 z"
         id="path278" />
    </g>
    <g
       class="st41"
       clip-path="url(#clippath-46)"
       id="g280">
      <path
         class="st3"
         d="m 364.7,479.5 c -6.3,-0.5 -7.5,-0.6 -13.9,-1 0,-21.4 0,-42.8 0,-64.1 6.4,0.8 7.6,1 13.9,1.8 0,21.1 0,42.3 0,63.4 z"
         id="path279" />
      <path
         class="st3"
         d="m 381.2,543.4 c -6.2,-0.1 -9.3,-0.2 -15.6,-0.3 0,-21.2 0,-42.3 0,-63.5 6.3,0.5 9.4,0.7 15.6,1.2 0,20.9 0,41.8 0,62.7 z"
         id="path280" />
    </g>
    <g
       class="st42"
       clip-path="url(#clippath-47)"
       id="g281">
      <path
         class="st3"
         d="m 364.8,588.4 c -6.3,0 -7.5,0.2 -13.9,0.2 0,-15.3 0,-30.6 0,-45.9 6.4,0.1 7.6,0.2 13.9,0.3 0,15.1 0,30.3 0,45.4 z"
         id="path281" />
    </g>
  </g>
  <polygon
     class="st52"
     points="590.1,570.2 589.1,307.2 352.9,570.2 "
     id="polygon282"
     transform="translate(-200.1,-202.6)" />
</svg>
