<?xml version="1.0" encoding="UTF-8" standalone="no"?>
<svg
   id="Layer_1"
   version="1.1"
   viewBox="0 0 596.2265 371.25"
   sodipodi:docname="geo3.svg"
   width="596.2265"
   height="371.25"
   inkscape:version="1.4.2 (ebf0e940, 2025-05-08)"
   xmlns:inkscape="http://www.inkscape.org/namespaces/inkscape"
   xmlns:sodipodi="http://sodipodi.sourceforge.net/DTD/sodipodi-0.dtd"
   xmlns="http://www.w3.org/2000/svg"
   xmlns:svg="http://www.w3.org/2000/svg">
  <sodipodi:namedview
     id="namedview6"
     pagecolor="#ffffff"
     bordercolor="#000000"
     borderopacity="0.25"
     inkscape:showpageshadow="2"
     inkscape:pageopacity="0.0"
     inkscape:pagecheckerboard="0"
     inkscape:deskcolor="#d1d1d1"
     inkscape:zoom="1.0833333"
     inkscape:cx="186"
     inkscape:cy="272.30769"
     inkscape:window-width="1408"
     inkscape:window-height="819"
     inkscape:window-x="0"
     inkscape:window-y="25"
     inkscape:window-maximized="0"
     inkscape:current-layer="Layer_1" />
  <!-- Generator: Adobe Illustrator 29.5.1, SVG Export Plug-In . SVG Version: 2.1.0 Build 141)  -->
  <defs
     id="defs1">
    <style
       id="style1">
      .st0 {
        fill: none;
        stroke: #fbf9f3;
        stroke-miterlimit: 10;
        stroke-width: 3.5px;
      }

      .st1 {
        fill: #eee3c3;
      }
    </style>
  </defs>
  <rect
     class="st1"
     x="-369.05002"
     y="1.7477002"
     width="368.20001"
     height="592.09998"
     transform="rotate(-90)"
     id="rect1" />
  <path
     class="st0"
     d="m 455.0477,110.45 c -1.3,29.6 -34.5,30.5 -34.5,30.5 -49,0.3 -52.3,-53.5 -52.3,-53.5 10.3,-85.7 87,-85.7 87,-85.7 148.8,12.9 139.1,150.7 139.1,150.7 -21.9,222.9 -228.5,212.5 -228.5,212.5 C 45.847697,358.85 3.6476972,38.55 3.6476972,38.55 l -1.9,-37"
     id="path1" />
  <line
     class="st0"
     x1="367.74771"
     y1="371.25"
     x2="367.74771"
     y2="0.24999699"
     id="line1" />
  <line
     class="st0"
     x1="367.74771"
     y1="140.95"
     x2="593.54767"
     y2="140.95"
     id="line2" />
  <line
     class="st0"
     x1="455.34769"
     y1="141.45"
     x2="455.34769"
     y2="1.749997"
     id="line3" />
  <line
     class="st0"
     x1="455.84769"
     y1="87.550003"
     x2="368.14774"
     y2="87.550003"
     id="line4" />
  <line
     class="st0"
     x1="421.84769"
     y1="141.84999"
     x2="421.84769"
     y2="86.949997"
     id="line5" />
  <line
     class="st0"
     x1="422.0477"
     y1="108.75002"
     x2="455.64774"
     y2="108.75002"
     id="line6" />
</svg>
