<?xml version="1.0" encoding="UTF-8" standalone="no"?>
<svg
   id="Layer_1"
   version="1.1"
   viewBox="0 0 1001.2711 390.07239"
   sodipodi:docname="news.svg"
   width="1001.2711"
   height="390.07239"
   inkscape:version="1.4.2 (ebf0e940d0, 2025-05-08)"
   xmlns:inkscape="http://www.inkscape.org/namespaces/inkscape"
   xmlns:sodipodi="http://sodipodi.sourceforge.net/DTD/sodipodi-0.dtd"
   xmlns="http://www.w3.org/2000/svg"
   xmlns:svg="http://www.w3.org/2000/svg">
  <sodipodi:namedview
     id="namedview82"
     pagecolor="#ffffff"
     bordercolor="#000000"
     borderopacity="0.25"
     inkscape:showpageshadow="2"
     inkscape:pageopacity="0.0"
     inkscape:pagecheckerboard="0"
     inkscape:deskcolor="#d1d1d1"
     inkscape:zoom="0.97005208"
     inkscape:cx="489.14899"
     inkscape:cy="189.1651"
     inkscape:window-width="1536"
     inkscape:window-height="996"
     inkscape:window-x="0"
     inkscape:window-y="0"
     inkscape:window-maximized="1"
     inkscape:current-layer="Layer_1" />
  <!-- Generator: Adobe Illustrator 29.5.1, SVG Export Plug-In . SVG Version: 2.1.0 Build 141)  -->
  <defs
     id="defs1">
    <style
       id="style1">
      .st0, .st1, .st2, .st3, .st4, .st5, .st6, .st7, .st8, .st9, .st10, .st11, .st12 {
        stroke: #000;
        stroke-miterlimit: 10;
      }

      .st0, .st1, .st2, .st3, .st7, .st8, .st9, .st10, .st11 {
        fill: none;
      }

      .st0, .st1, .st4, .st5, .st11, .st12 {
        stroke-linecap: round;
      }

      .st0, .st4, .st6, .st9 {
        stroke-width: 1.1px;
      }

      .st1 {
        stroke-width: 2.1px;
      }

      .st2, .st5, .st12 {
        stroke-width: 1.6px;
      }

      .st3 {
        stroke-width: 1.6px;
      }

      .st13 {
        fill: #f6c43f;
      }

      .st7 {
        stroke-width: .5px;
      }

      .st8 {
        stroke-width: .5px;
      }

      .st10 {
        stroke-width: .8px;
      }

      .st14 {
        fill: #d2e4e8;
      }

      .st11 {
        stroke-width: 5.3px;
      }

      .st12 {
        fill: #4fab00;
      }
    </style>
  </defs>
  <g
     id="g79"
     transform="translate(-193.86694,-195.32761)">
    <rect
       class="st14"
       x="194.10001"
       y="195.60001"
       width="1000.9"
       height="388.10001"
       id="rect1" />
    <line
       class="st11"
       x1="443.29999"
       y1="328.70001"
       x2="517.29999"
       y2="350.20001"
       id="line1" />
    <ellipse
       cx="509.10001"
       cy="218.7"
       rx="2.0999999"
       ry="1.6"
       id="ellipse1" />
    <ellipse
       cx="509.10001"
       cy="220.89999"
       rx="2.0999999"
       ry="1.6"
       id="ellipse2" />
    <line
       class="st1"
       x1="442"
       y1="330.60001"
       x2="442"
       y2="336"
       id="line2" />
    <line
       class="st1"
       x1="439.89999"
       y1="329.39999"
       x2="436"
       y2="330.5"
       id="line3" />
    <line
       class="st1"
       x1="440.29999"
       y1="326"
       x2="432.5"
       y2="324.79999"
       id="line4" />
    <line
       class="st1"
       x1="513.59998"
       y1="349.20001"
       x2="506.39999"
       y2="353.5"
       id="line5" />
    <line
       class="st1"
       x1="517.29999"
       y1="351.39999"
       x2="517.29999"
       y2="358"
       id="line6" />
    <line
       class="st1"
       x1="518.79999"
       y1="350.29999"
       x2="523.70001"
       y2="350.5"
       id="line7" />
    <line
       class="st1"
       x1="493.60001"
       y1="478.20001"
       x2="500.29999"
       y2="478.20001"
       id="line8" />
    <line
       class="st1"
       x1="476.5"
       y1="482.60001"
       x2="469.60001"
       y2="482.60001"
       id="line9" />
    <line
       class="st1"
       x1="477.60001"
       y1="488.70001"
       x2="470.10001"
       y2="488.70001"
       id="line10" />
    <ellipse
       cx="469.70001"
       cy="483"
       rx="3.5999999"
       ry="2.0999999"
       id="ellipse10" />
    <ellipse
       cx="469.70001"
       cy="488.10001"
       rx="3.5999999"
       ry="2.0999999"
       id="ellipse11" />
    <ellipse
       cx="469.70001"
       cy="485.70001"
       rx="3.5999999"
       ry="2.0999999"
       id="ellipse12" />
    <g
       id="g20">
      <ellipse
         cx="499.79999"
         cy="256.5"
         rx="2.2"
         ry="3.5999999"
         id="ellipse13" />
      <ellipse
         cx="502.29999"
         cy="256.10001"
         rx="2.2"
         ry="3.5999999"
         id="ellipse14" />
      <ellipse
         cx="504.79999"
         cy="255.60001"
         rx="2.2"
         ry="3.5999999"
         id="ellipse15" />
      <ellipse
         cx="507.29999"
         cy="255.2"
         rx="2.2"
         ry="3.5999999"
         id="ellipse16" />
      <ellipse
         cx="509.79999"
         cy="254.8"
         rx="2.2"
         ry="3.5999999"
         id="ellipse17" />
      <ellipse
         cx="512.20001"
         cy="254.3"
         rx="2.2"
         ry="3.5999999"
         id="ellipse18" />
      <ellipse
         cx="514.70001"
         cy="253.89999"
         rx="2.2"
         ry="3.5999999"
         id="ellipse19" />
      <ellipse
         cx="517.20001"
         cy="253.39999"
         rx="2.2"
         ry="3.5999999"
         id="ellipse20" />
    </g>
    <g
       id="g28">
      <ellipse
         cx="452.89999"
         cy="325"
         rx="2.2"
         ry="3.5999999"
         id="ellipse21" />
      <ellipse
         cx="455.39999"
         cy="324.5"
         rx="2.2"
         ry="3.5999999"
         id="ellipse22" />
      <ellipse
         cx="457.79999"
         cy="324.10001"
         rx="2.2"
         ry="3.5999999"
         id="ellipse23" />
      <ellipse
         cx="460.29999"
         cy="323.60001"
         rx="2.2"
         ry="3.5999999"
         id="ellipse24" />
      <ellipse
         cx="462.79999"
         cy="323.20001"
         rx="2.2"
         ry="3.5999999"
         id="ellipse25" />
      <ellipse
         cx="465.29999"
         cy="322.70001"
         rx="2.2"
         ry="3.5999999"
         id="ellipse26" />
      <ellipse
         cx="467.79999"
         cy="322.29999"
         rx="2.2"
         ry="3.5999999"
         id="ellipse27" />
      <ellipse
         cx="470.20001"
         cy="321.89999"
         rx="2.2"
         ry="3.5999999"
         id="ellipse28" />
    </g>
    <g
       id="g36">
      <ellipse
         cx="525.59998"
         cy="345.89999"
         rx="2.2"
         ry="3.5999999"
         id="ellipse29" />
      <ellipse
         cx="528"
         cy="345.5"
         rx="2.2"
         ry="3.5999999"
         id="ellipse30" />
      <ellipse
         cx="530.5"
         cy="345"
         rx="2.2"
         ry="3.5999999"
         id="ellipse31" />
      <ellipse
         cx="533"
         cy="344.60001"
         rx="2.2"
         ry="3.5999999"
         id="ellipse32" />
      <ellipse
         cx="535.5"
         cy="344.10001"
         rx="2.2"
         ry="3.5999999"
         id="ellipse33" />
      <ellipse
         cx="538"
         cy="343.70001"
         rx="2.2"
         ry="3.5999999"
         id="ellipse34" />
      <ellipse
         cx="540.40002"
         cy="343.29999"
         rx="2.2"
         ry="3.5999999"
         id="ellipse35" />
      <ellipse
         cx="542.90002"
         cy="342.79999"
         rx="2.2"
         ry="3.5999999"
         id="ellipse36" />
    </g>
    <path
       d="m 522.9,337.3 c -0.2,-1.6 -4,-4.3 -4,-4.3 0,0 0,0 0,-1 0,-1 -1.5,-1.6 -2.1,-1.4 -0.6,0.1 -1.3,-0.3 -1.3,-0.3 -2.8,-1.4 -4.1,0.4 -4,2 0.1,1.6 0.7,1.3 0.7,1.3 -2.8,1.4 -3.1,3.3 -3,4.5 -0.5,0.5 -0.8,0.9 -0.7,1.4 0.2,1.6 3.6,2.5 7.7,2.1 4.1,-0.4 7.3,-2 7.2,-3.6 0,-0.3 -0.2,-0.6 -0.4,-0.8 z"
       id="path36" />
    <path
       d="m 448.5,315.3 c 0,-1.7 -3.4,-4.8 -3.4,-4.8 0,0 0,0 0.1,-0.9 0.1,-0.9 -1.3,-1.7 -1.9,-1.7 -0.6,0 -1.3,-0.4 -1.3,-0.4 -2.6,-1.7 -4.2,0 -4.3,1.5 -0.1,1.5 0.6,1.4 0.6,1.4 -2.9,1 -3.5,2.9 -3.6,4.1 -0.6,0.4 -0.9,0.8 -0.9,1.3 0,1.6 3.3,3 7.4,3.1 4.1,0.1 7.5,-1.1 7.6,-2.7 0,-0.3 -0.1,-0.6 -0.3,-0.9 z"
       id="path37" />
    <ellipse
       cx="501.10001"
       cy="478.10001"
       rx="3.8"
       ry="2.8"
       id="ellipse37" />
    <line
       class="st0"
       x1="502.5"
       y1="479.79999"
       x2="505.10001"
       y2="482.29999"
       id="line37" />
    <line
       class="st0"
       x1="500.79999"
       y1="480.39999"
       x2="502.39999"
       y2="482.10001"
       id="line38" />
    <g
       id="g42">
      <line
         class="st4"
         x1="555.40002"
         y1="341.79999"
         x2="556.20001"
         y2="346.39999"
         id="line39" />
      <line
         class="st4"
         x1="560.09998"
         y1="341.10001"
         x2="561"
         y2="345.60001"
         id="line40" />
      <line
         class="st5"
         x1="557.90002"
         y1="341.10001"
         x2="558.70001"
         y2="346.10001"
         id="line41" />
      <ellipse
         class="st5"
         cx="557.70001"
         cy="339.89999"
         rx="3.0999999"
         ry="3"
         id="ellipse41" />
      <line
         class="st5"
         x1="558.5"
         y1="337.70001"
         x2="558.40002"
         y2="335.29999"
         id="line42" />
    </g>
    <g
       id="g45">
      <line
         class="st0"
         x1="529.40002"
         y1="252.2"
         x2="530.20001"
         y2="256.89999"
         id="line43" />
      <line
         class="st0"
         x1="535"
         y1="256.10001"
         x2="534"
         y2="251.5"
         id="line44" />
      <polyline
         class="st3"
         points="532.6 256.6 531.8 251.5 941.3 196.3"
         id="polyline44" />
      <ellipse
         class="st5"
         cx="531.70001"
         cy="250.3"
         rx="3.0999999"
         ry="3"
         id="ellipse44" />
      <line
         class="st12"
         x1="532.29999"
         y1="245.8"
         x2="532.40002"
         y2="248.2"
         id="line45" />
    </g>
    <path
       class="st5"
       d="m 521.9,345 c -0.2,-0.6 -0.6,-0.8 -1.3,-1.1 -0.5,-0.2 -1.4,0.8 -1.8,1.3 -0.7,-0.4 -1.5,-0.6 -2.4,-0.6 -2.7,0 -4.8,2.2 -4.8,4.8 0,2.6 2.2,4.8 4.8,4.8 2.6,0 4.8,-2.2 4.8,-4.8 0,-2.6 0,-0.6 0,-1 0.6,-0.3 1.3,-0.7 1.6,-0.8 0.5,-0.2 -0.7,-2 -0.9,-2.6 z"
       id="path45" />
    <path
       class="st5"
       d="m 555.3,340.7 -5.5,1.2 c 0,-0.1 0,-0.3 0,-0.4 0,-0.8 -1.1,-1.2 -1.4,-1.3 -0.4,0 -0.3,0.7 -0.7,0.7 -0.4,0 -0.3,-0.2 -1.2,-0.3 -0.9,-0.1 -0.7,1.6 -0.7,1.6 0,0 0,0.2 0.2,0.5 l -1.5,0.3 c 0,0 0.6,0 1.5,-0.2 0.2,0.4 0.5,1 0.9,1.4 0.8,0.7 1.9,-0.4 3.1,-0.5 0.9,-0.1 0.3,-0.9 0,-1.6 1.9,-0.4 3.9,-0.9 5.4,-1.4 z"
       id="path46" />
    <path
       class="st5"
       d="m 540.6,325.4 c 0,0 0.2,-2.2 1.1,-2.3 0.9,-0.1 1.8,-0.4 2.5,-0.1 0.7,0.3 0.4,0.3 0.3,1.3 -0.1,1 -0.2,1.2 0,1.8 0.2,0.6 1.5,1.6 0.3,1.6 -1.2,0 -1.1,1.6 -2.5,0.8 -1.4,-0.8 -2.1,-2.2 -1.8,-3.1 z"
       id="path47" />
    <path
       class="st0"
       d="m 494.6,338.3 c 0,0 11,-1.9 17.7,-3.6 0,0 10.5,-8.6 15.6,-9.7 5.1,-1.1 11.1,-1.2 12.4,-0.5 1.3,0.7 3.8,2.1 3.8,2.1 0,0 4.8,0 6,0 1.2,0 2.1,1.3 2.4,2.5 0.3,1.2 1.6,8.9 1.8,10.9"
       id="path48" />
    <line
       class="st0"
       x1="441.89999"
       y1="317.60001"
       x2="441.89999"
       y2="324.89999"
       id="line48" />
    <path
       d="m 451.5,324.4 c 0,0 -0.9,0 -1.4,0 -0.6,0.1 -0.8,-0.1 -1.1,-0.8 -0.3,-0.6 -1.4,-0.6 -1.9,-0.6 -0.5,0 -0.9,0.5 -1.3,1 -0.8,-0.9 -2,-1.5 -3.3,-1.5 -2.5,0 -4.6,2.2 -4.6,4.9 0,2.7 2,4.9 4.6,4.9 2.6,0 4.3,-1.9 4.5,-4.4 l 2.1,0.3 c 0,0 0.8,-1.1 1.2,-1.6 0.4,-0.5 1.5,-0.5 1.5,-0.5 l -0.2,-1.6 z"
       id="path49" />
    <path
       d="m 470.8,321.6 c 1,-2.1 2.5,-3.2 4.5,-2 0.6,0.4 1.4,1.4 2.1,1 0.4,-0.2 0.8,-1 1.2,-1.3 0.4,-0.3 0.9,-0.2 1.3,0 0.6,0.3 1,0.8 1.4,1.5 0,0 0,0.5 0,0.5 -0.4,1 -1.4,2.4 -2.5,1.9 -0.5,-0.3 -1,-1 -1.4,-1.1 -1,-0.3 -1.6,1.4 -2.6,1.7 -1.6,1 -3.1,-0.2 -4.1,-1.7 0,0 0,-0.5 0,-0.5 v 0 z"
       id="path50" />
    <path
       d="m 489.6,241.5 c -1.8,0 -3.5,0.5 -4.9,1.4 -0.4,-0.6 -0.8,-1.2 -1.1,-1.8 3.2,-0.6 5.4,-2 5.3,-3.3 0,-0.3 -0.2,-0.6 -0.4,-0.8 -0.2,-1.6 -4,-4.3 -4,-4.3 0,0 0,0 0,-1 0.1,-1.3 -1.5,-1.6 -2.1,-1.4 -0.6,0.1 -1.3,-0.3 -1.3,-0.3 -2.8,-1.4 -4.1,0.4 -4,2 0,0.6 0.7,1.3 0.7,1.3 -2.8,1.4 -3.1,3.3 -3,4.5 -0.5,0.5 -0.8,0.9 -0.7,1.4 0.2,1.5 3.4,2.5 7.4,2.2 l 0.4,5 c -0.4,0.9 -0.6,2 -0.7,3 l -2.1,82.9 V 332 c 0,0 -2.4,1.1 -3.1,2 -0.7,0.9 -20.7,-4.6 -20.7,-4.6 l 19.5,9.9 c 0,0 1.1,2.2 1.4,3 0.3,0.8 1.7,1.7 2.5,1.9 0,0 0,0 0,0 l -6.2,240.9 24.4,0.3 V 249.1 c 0,-4.1 -3.3,-7.5 -7.4,-7.6 z"
       id="path51" />
    <line
       class="st8"
       x1="481.60001"
       y1="285.79999"
       x2="447.10001"
       y2="356.89999"
       id="line51" />
    <g
       id="g52">
      <path
         d="m 448.3,351.1 2.5,1 c 0,0 -2.6,5.3 -2.9,6.7 -0.3,1.4 -0.3,2.1 -0.7,2.1 -0.4,0 -3.5,-1.5 -3.6,-1.7 -0.1,-0.2 -0.5,-1 0.8,-1.8 1.3,-0.8 3.6,-5.8 3.9,-6.2 z"
         id="path52" />
      <polygon
         class="st8"
         points="446.9,360.2 444.2,358.9 442.1,365.5 "
         id="polygon52" />
    </g>
    <line
       class="st8"
       x1="442.10001"
       y1="365.5"
       x2="324.70001"
       y2="583.5"
       id="line52" />
    <g
       id="g53">
      <path
         d="m 444.6,429.2 2.5,1 c 0,0 -2.6,5.3 -2.9,6.7 -0.3,1.4 -0.3,2.1 -0.7,2.1 -0.4,0 -3.5,-1.5 -3.6,-1.7 -0.1,-0.2 -0.5,-1 0.8,-1.8 1.3,-0.8 3.6,-5.8 3.9,-6.2 z"
         id="path53" />
      <polygon
         class="st8"
         points="443.2,438.2 440.5,436.9 438.4,443.6 "
         id="polygon53" />
    </g>
    <line
       class="st8"
       x1="445.5"
       y1="430.5"
       x2="479.29999"
       y2="362.20001"
       id="line53" />
    <path
       class="st8"
       d="m 438.4,443.6 c 0,0 -70.1,123.1 -80,140"
       id="path54" />
    <line
       class="st2"
       x1="194.10001"
       y1="384.79999"
       x2="438.39999"
       y2="310.39999"
       id="line54" />
    <path
       class="st8"
       d="m 444.4,309.2 c 0,0 4.5,-1.3 7.1,-1.4 2.6,-0.1 5.6,-1.3 6.3,-1.4 2.2,-0.3 8.9,-0.1 10.3,-0.1 1.4,0 3.7,-0.4 3.7,-0.4"
       id="path55" />
    <line
       class="st2"
       x1="194.10001"
       y1="427.39999"
       x2="481.5"
       y2="343.70001"
       id="line55" />
    <path
       class="st8"
       d="m 481.7,230.9 c 0,0 15.3,-13 26.1,-11.7"
       id="path56" />
    <path
       class="st8"
       d="m 528,251.2 c 0,-4 -2.7,-18.7 -4.4,-23.3 -1.7,-4.6 -14.5,-6.9 -14.5,-6.9"
       id="path57" />
    <path
       class="st3"
       d="m 491.8,318.8 c 109.7,-8.7 229.1,-23 356.4,-45.2 124,-21.6 242.4,-49.5 346.2,-77.5"
       id="path58" />
    <line
       class="st3"
       x1="557.70001"
       y1="339.89999"
       x2="1195"
       y2="228.3"
       id="line58" />
    <line
       class="st9"
       x1="501.10001"
       y1="478.10001"
       x2="1195"
       y2="400"
       id="line59" />
    <path
       class="st9"
       d="m 195.6,570 c 0,0 135,-7.8 255.4,-69.1 30.1,-15.3 19.9,-17.3 19.9,-17.3"
       id="path59" />
    <path
       class="st9"
       d="m 449.5,501.8 c 0,0 24.3,-5.2 26.6,4.1"
       id="path60" />
    <path
       class="st9"
       d="m 471.4,307.2 c 0,0 5.3,-1.8 6,-0.7 0.7,1.1 2.7,3.6 2.8,6.4"
       id="path61" />
    <path
       class="st6"
       d="m 473,303.8 c 0,0 2.4,-0.4 2.4,0.5 0,0.9 0.3,2.2 -0.6,3.3 -0.9,1.1 -2.6,1.7 -3.7,1.4 -1.1,-0.3 1.9,-5.3 1.9,-5.3 z"
       id="path62" />
    <path
       class="st6"
       d="m 518.9,252.4 c 0,0 2.4,-0.9 3.1,-0.9 0.7,0 0.6,0.3 2.1,0.3 1.5,0 5,-1.4 5,-1.4 l 0.8,2.2 -4.3,0.5 -2.6,1 c 0,0 0.2,0.8 -1.6,0.8 -1.8,0 -2.9,-0.3 -2.9,-0.3 l 0.5,-2.3 z"
       id="path63" />
    <line
       class="st5"
       x1="494.39999"
       y1="257.39999"
       x2="502"
       y2="256.5"
       id="line63" />
    <polygon
       class="st13"
       points="566.7,368 609.4,310.2 579.2,385.8 650.3,404.4 595.2,409.8 611.2,459.5 577.4,437.3 558.7,516.4 540,448 523.2,442.7 533.8,434.7 545.4,415.1 513.4,381.8 536.5,370.7 527.9,325 "
       id="polygon63" />
    <g
       id="g68">
      <path
         d="m 491.9,399.8 11.2,-0.5 c 0,0 -2,9.8 0.7,17 l -10.5,0.7 c 0,0 -3.3,0 -3.7,-3.9 -0.4,-3.9 -0.4,-7.5 -0.3,-9.4 0.1,-1.9 0.2,-1.8 0.7,-2.6 0.5,-0.8 1.1,-1.4 2,-1.4 z"
         id="path64" />
      <path
         d="m 488.1,406.1 -4.2,0.2 c 0,0 -1.9,2.8 0.5,5.1 l 3.9,-0.2 z"
         id="path65" />
      <path
         d="m 558.7,397.3 c 0,0 -1.8,-17.1 -3.3,-20.1 -1.5,-3 -1.9,-1.7 -2.8,0.7 -0.9,2.4 -5.5,40.8 1.6,57 0,0 2.3,5.3 3.9,-2.7 1.6,-8.1 1.5,-17 1.5,-17 h -3.5 c 0,0.1 -1.9,0 -2.4,-1.8 -0.5,-1.8 -1.9,-6.3 -0.8,-13 0,0 0.8,-2.4 2.1,-2.5 1.3,-0.1 3.7,-0.6 3.7,-0.6 z"
         id="path66" />
      <path
         d="m 555.6,399.2 c 0,0 5.2,-0.8 5.8,-0.7 0.6,0.1 9,0.4 10.4,4.5 1.4,4.1 0.5,7.5 -2.1,8.5 -2.6,1 -12,2.3 -12.8,2.1 -0.8,-0.2 -4.7,-7 -1.3,-14.5 z"
         id="path67" />
      <path
         d="m 551.1,376.4 -14.6,10.4 c -9.7,8.2 -23.2,10.6 -24.9,10.9 -1.2,0.3 -4,0.6 -5.4,0.7 -0.5,0 -1,0.5 -1,1 -0.4,3.8 -1.6,18.3 2.1,18.3 4.6,0.1 12.2,0.8 21.5,4.5 9.3,3.8 23.7,13.7 23.7,13.7 -8.3,-33.8 -1.3,-59.6 -1.3,-59.6 z m -44.9,28 0.2,-3.7 c 6.6,0.7 23,-2.2 23,-2.2 v 5.1 c 0.1,0 -23.2,0.8 -23.2,0.8 z m 29.1,-1.1 -0.3,-6.3 11.3,-3.8 -0.2,9.9 -10.9,0.2 z"
         id="path68" />
    </g>
    <polygon
       class="st13"
       points="423.3,403.6 384.9,354.5 412.1,418.6 348.1,434.5 397.7,439 383.3,481.2 413.7,462.4 430.5,529.5 447.3,471.4 462.5,466.9 452.9,460.1 442.5,443.5 471.3,415.2 450.5,405.8 458.3,367.1 "
       id="polygon68" />
    <g
       id="g73">
      <path
         d="m 491.3,433.6 -11.2,-0.5 c 0,0 2,9.8 -0.7,17 l 10.5,0.7 c 0,0 3.3,0 3.7,-3.9 0.4,-3.9 0.4,-7.5 0.3,-9.4 -0.1,-1.9 -0.2,-1.8 -0.7,-2.6 -0.5,-0.8 -1.1,-1.4 -2,-1.4 z"
         id="path69" />
      <path
         d="m 495.1,439.9 4.2,0.2 c 0,0 1.9,2.8 -0.5,5.1 l -3.9,-0.2 z"
         id="path70" />
      <path
         d="m 424.5,431.1 c 0,0 1.8,-17.1 3.3,-20.1 1.5,-3 1.9,-1.7 2.8,0.7 0.9,2.4 5.5,40.8 -1.6,57 0,0 -2.3,5.3 -3.9,-2.7 -1.6,-8.1 -1.5,-17 -1.5,-17 h 3.5 c 0,0.1 1.9,0 2.4,-1.8 0.5,-1.8 1.9,-6.3 0.8,-13 0,0 -0.8,-2.4 -2.1,-2.5 -1.3,-0.1 -3.7,-0.6 -3.7,-0.6 z"
         id="path71" />
      <path
         d="m 427.6,433 c 0,0 -5.2,-0.8 -5.8,-0.7 -0.6,0.1 -9,0.4 -10.4,4.5 -1.4,4.1 -0.5,7.5 2.1,8.5 2.6,1 12,2.3 12.8,2.1 0.8,-0.2 4.7,-7 1.3,-14.5 z"
         id="path72" />
      <path
         d="m 430.8,469.9 c 0,0 14.4,-10 23.7,-13.7 9.3,-3.8 16.8,-4.4 21.5,-4.5 3.7,0 2.4,-14.5 2.1,-18.3 0,-0.5 -0.5,-1 -1,-1 -1.4,-0.1 -4.2,-0.4 -5.4,-0.7 -1.7,-0.4 -15.2,-2.7 -24.9,-10.9 l -14.6,-10.4 c 0,0 7,25.8 -1.3,59.6 z m 22.9,-32.5 v -5.1 c 0.1,0 16.5,2.8 23.1,2.2 l 0.2,3.7 z m -16.7,-0.6 -0.2,-9.9 11.3,3.8 -0.3,6.3 -10.9,-0.2 z"
         id="path73" />
    </g>
    <path
       d="m 1118.3,417.8 c -0.7,3.2 0.5,10.9 -5.1,9.8 -5.6,-1.1 -1.8,-1.6 -1.9,-1.7 -0.4,-0.7 1.4,-5.7 1.4,-7.2 0,-1.5 -2.5,-5.6 -2.5,-5.6 -1.3,-4.1 -1.2,-7.5 0,-11.6 1.2,-4.1 1.2,-2.2 1.6,-3.3 0.8,-2.7 0.5,-8.9 5.8,-6.5 5.3,2.4 4.6,10.6 4.8,12.8 0.2,2.2 0.2,3.7 -0.8,5.5 0,0 -3.2,6.7 -3.4,7.8 z"
       id="path74" />
    <path
       d="m 1079.2,416.2 c -1.7,-4.3 -1.3,-8.5 1.2,-12.5 2.5,-4 2,-1.8 2.4,-2.9 0.7,-2.1 0,-5.8 3.2,-6.5 3.2,-0.7 4.3,1 7.2,2.1 l -1.8,3.3 c 0,1.8 1.8,2.1 2.6,3.2 1.6,2.1 1.6,6.3 1.4,8.8 -0.2,2.5 -5.7,12.8 -5.8,15.4 -0.1,2.6 1.8,5.9 -2,7.2 -5.8,2 -3.8,-5.5 -4.3,-8.9 -0.5,-3.4 -3.7,-8.3 -4.1,-9.2 z"
       id="path75" />
    <g
       id="g78">
      <line
         class="st4"
         x1="467.10001"
         y1="308.60001"
         x2="467.79999"
         y2="313.20001"
         id="line75" />
      <line
         class="st4"
         x1="471.70001"
         y1="307.89999"
         x2="472.70001"
         y2="312.39999"
         id="line76" />
      <line
         class="st5"
         x1="469.5"
         y1="307.89999"
         x2="470.29999"
         y2="312.89999"
         id="line77" />
      <ellipse
         class="st5"
         cx="469.29999"
         cy="306.70001"
         rx="3.0999999"
         ry="3"
         id="ellipse77" />
      <line
         class="st5"
         x1="470.10001"
         y1="304.5"
         x2="470"
         y2="302.10001"
         id="line78" />
    </g>
  </g>
  <path
     class="st2"
     d="M 254.63306,130.47239"
     id="path79" />
  <path
     class="st10"
     d="m 246.53306,132.17239 c 0,0 -230.7,87 -246.2999997,91.2"
     id="path80" />
  <path
     class="st10"
     d="m 349.93306,129.77239 c 0,0 425.8,79.5 651.10004,39.7"
     id="path81" />
  <path
     class="st7"
     d="m 286.13306,40.772392 c 0,0 -12.5,68.099998 -38.4,77.799998"
     id="path82" />
</svg>
