<?xml version="1.0" encoding="UTF-8" standalone="no"?>
<!-- Created with Inkscape (http://www.inkscape.org/) -->

<svg
   width="412.32666mm"
   height="210.80658mm"
   viewBox="0 0 412.32666 210.80658"
   version="1.1"
   id="svg1"
   inkscape:version="1.4.2 (ebf0e940d0, 2025-05-08)"
   sodipodi:docname="pls-logo.svg"
   xmlns:inkscape="http://www.inkscape.org/namespaces/inkscape"
   xmlns:sodipodi="http://sodipodi.sourceforge.net/DTD/sodipodi-0.dtd"
   xmlns="http://www.w3.org/2000/svg"
   xmlns:svg="http://www.w3.org/2000/svg">
  <sodipodi:namedview
     id="namedview1"
     pagecolor="#ffffff"
     bordercolor="#000000"
     borderopacity="0.25"
     inkscape:showpageshadow="2"
     inkscape:pageopacity="0.0"
     inkscape:pagecheckerboard="0"
     inkscape:deskcolor="#d1d1d1"
     inkscape:document-units="mm"
     inkscape:zoom="0.31717054"
     inkscape:cx="1056.2141"
     inkscape:cy="543.87144"
     inkscape:window-width="1536"
     inkscape:window-height="996"
     inkscape:window-x="0"
     inkscape:window-y="0"
     inkscape:window-maximized="1"
     inkscape:current-layer="layer1" />
  <defs
     id="defs1" />
  <g
     inkscape:label="Layer 1"
     inkscape:groupmode="layer"
     id="layer1"
     transform="translate(73.289586,37.306244)">
    <g
       id="g36"
       transform="matrix(0.26458333,0,0,0.26458333,-673.17937,295.83705)">
      <g
         id="g7">
        <g
           id="g4">
          <path
             class="st2"
             d="m 2602.4,-1255.2 v 235.4 c 0,1.4 -0.7,2.7 -2,3.4 l -237.1,134.6 c -1.2,0.7 -2,2 -2,3.4 v 140.1 c 0,1.4 -0.7,2.7 -1.9,3.4 l -86.2,49.7 c -2.6,1.5 -5.9,-0.4 -5.9,-3.4 v -377.6 c 0,-1.4 0.8,-2.7 2,-3.4 l 327.2,-188.9 c 2.6,-1.5 5.8,0.4 5.8,3.4 z m -97.5,157.6 -141.4,80.9 c -1.2,0.7 -2,2 -2,3.4 v 21.8 c 0,1.8 1.9,2.9 3.5,2 l 141.4,-79 c 1.2,-0.7 2,-2 2,-3.4 v -23.7 c 0,-1.8 -1.9,-2.9 -3.5,-2 z"
             id="path3"
             style="fill:#01326b" />
          <path
             class="st0"
             d="m 2602.5,-984.8 v 107.5 c 0,1.4 -0.8,2.5 -2,3.2 l -210.4,121.5 c -2.6,1.5 -5.9,-0.4 -5.9,-3.4 v -109.2 c 0,-1.4 0.7,-2.7 2,-3.4 l 210.4,-119.6 c 2.6,-1.5 5.9,0.4 5.9,3.4 z"
             id="path4"
             style="fill:#eeb100" />
        </g>
        <g
           id="g6">
          <path
             class="st2"
             d="m 2727.7,-1205.4 v 273.3 c 0,1.4 0.8,2.7 2,3.4 l 236.9,137.3 c 1.2,0.7 2,2 2,3.4 v 99.4 c 0,3 -3.2,4.9 -5.8,3.4 l -327.2,-188.9 c -1.2,-0.7 -1.9,-2.1 -1.9,-3.5 v -377.6 c 0,-3 3.2,-4.9 5.8,-3.4 l 86.2,49.8 c 1.2,0.7 2,2 2,3.4 z"
             id="path5"
             style="fill:#01326b" />
          <path
             class="st0"
             d="m 2968.6,-1066.3 v 242.9 c 0,3 -3.2,4.9 -5.8,3.4 l -210.3,-121.6 c -1.2,-0.7 -2,-2 -2,-3.4 v -242.9 c 0,-3 3.2,-4.9 5.8,-3.4 l 210.3,121.5 c 1.2,0.7 2,2 2,3.4 z"
             id="path6"
             style="fill:#eeb100" />
        </g>
        <path
           class="st2"
           d="m 2947.2,-651.8 -96.6,55.6 c -1.2,0.7 -2.6,0.7 -3.8,0 L 2613.4,-731 c -1.3,-0.7 -2.8,-0.6 -4.1,0.2 l -16.6,9.6 c -1.3,0.9 -1.2,2.9 0.2,3.8 l 228.2,132 c 2.5,1.4 2.5,5 0,6.4 l -201.4,116.1 c -1.2,0.7 -2.7,0.7 -3.9,0 l -327.6,-189 c -2.4,-1.5 -2.4,-5 0,-6.4 l 93.3,-53.7 c 1.2,-0.7 2.6,-0.7 3.8,0 l 216,124.7 c 1.2,0.7 2.6,0.7 3.8,0 l 16.9,-10.2 c 1.5,-0.9 1.5,-3 0,-3.9 l -210.6,-121.8 c -2.4,-1.5 -2.4,-5 0,-6.4 l 204.4,-117.9 c 1.2,-0.7 2.6,-0.7 3.7,0 l 327.5,189.1 c 2.5,1.4 2.5,5 0,6.5 z"
           id="path7"
           style="fill:#01326b" />
      </g>
      <g
         id="g35">
        <path
           class="st2"
           d="m 3033.1,-1061.7 h 24.3 c 17.8,0 29.8,6 29.8,23.7 0,17.7 -12.1,24.9 -29.8,24.9 h -14 v 31.9 h -10.3 v -80.4 z m 23,40.2 c 14,0 20.7,-5.2 20.7,-16.6 0,-11.4 -6.9,-15.3 -20.7,-15.3 h -12.8 v 31.9 z"
           id="path8"
           style="fill:#01326b" />
        <path
           class="st2"
           d="m 3111.9,-1040.9 h 8.5 l 1,14.1 h 0.2 c 6.2,-9.7 15.6,-15.6 26.6,-15.6 11,0 8.1,0.6 11.8,2.5 l -2.3,8.7 c -4.2,-1.4 -6.4,-2 -11,-2 -8.9,0 -17.4,4.5 -24.5,17 v 34.8 H 3112 v -59.6 z"
           id="path9"
           style="fill:#01326b" />
        <path
           class="st2"
           d="m 3175.1,-1011 c 0,-20 13.7,-31.4 29.4,-31.4 15.7,0 29.4,11.4 29.4,31.4 0,20 -13.7,31.1 -29.4,31.1 -15.7,0 -29.4,-11.4 -29.4,-31.1 z m 48.4,0 c 0,-13.7 -7.6,-22.9 -19,-22.9 -11.4,0 -19,9.2 -19,22.9 0,13.7 7.6,22.7 19,22.7 11.4,0 19,-9.1 19,-22.7 z"
           id="path10"
           style="fill:#01326b" />
        <path
           class="st2"
           d="m 3250.2,-970.4 c 0,-4.8 3.4,-9.6 9.8,-13.2 v -0.5 c -3.2,-1.7 -6.1,-4.8 -6.1,-9.8 0,-5 2.6,-8.1 7.1,-11.2 v -0.5 c -4,-3.1 -7.4,-8.3 -7.4,-15.4 0,-13 10.8,-21.3 23.4,-21.3 12.6,0 6.2,0.5 8.8,1.5 h 24.6 v 8.2 h -15.5 c 2.7,2.8 5,7.2 5,12 0,12.7 -10.2,20.5 -23.1,20.5 -12.9,0 -6.7,-0.7 -10.1,-2.2 -2.9,1.8 -4.7,4 -4.7,6.9 0,4.7 4.5,6.9 12.4,6.9 h 13.4 c 15.3,0 22.7,3.9 22.7,14 0,10.1 -12.9,20.8 -33.1,20.8 -20.2,0 -27.5,-6 -27.5,-16.6 z m 50.6,-2.7 c 0,-5.6 -4.5,-7.2 -13.6,-7.2 h -11.7 c -3.4,0 -6.5,-0.2 -9.1,-1 -5.6,3.1 -7.6,6.5 -7.6,9.9 0,6.2 6.7,10.2 19.5,10.2 12.8,0 22.4,-5.8 22.4,-11.9 z m -10,-47.9 c 0,-8.3 -6.1,-14 -13.7,-14 -7.6,0 -13.7,5.6 -13.7,14 0,8.4 6.3,14.1 13.7,14.1 7.4,0 13.7,-5.5 13.7,-14.1 z"
           id="path11"
           style="fill:#01326b" />
        <path
           class="st2"
           d="m 3332.7,-1040.9 h 8.5 l 1,14.1 h 0.2 c 6.2,-9.7 15.6,-15.6 26.6,-15.6 11,0 8.1,0.6 11.8,2.5 l -2.3,8.7 c -4.2,-1.4 -6.4,-2 -11,-2 -8.9,0 -17.4,4.5 -24.5,17 v 34.8 h -10.2 v -59.6 z"
           id="path12"
           style="fill:#01326b" />
        <path
           class="st2"
           d="m 3398.4,-996.8 c 0,-13.4 12.5,-19.9 43.3,-22.3 -0.4,-8.1 -4.3,-15 -15.8,-15 -11.5,0 -15.3,3.7 -20.8,7.1 l -4.1,-6.9 c 6.1,-3.9 16.2,-8.6 26.6,-8.6 16.3,0 24.3,9.7 24.3,24.5 v 36.5 h -8.5 l -0.9,-8.1 h -0.4 c -6.5,5.2 -15.1,9.6 -23.4,9.6 -8.3,0 -20.3,-6.2 -20.3,-16.9 z m 43.3,-0.1 v -15.4 c -25.5,2 -33.2,7 -33.2,14.8 0,7.8 6.1,9.4 13,9.4 6.9,0 13.4,-3.2 20.2,-8.8 z"
           id="path13"
           style="fill:#01326b" />
        <path
           class="st2"
           d="m 3469.3,-1040.9 h 8.1 l 0.9,7.8 h 0.2 c 3.1,-5.5 6.7,-9.3 13.6,-9.3 6.9,0 9.6,3.4 11.3,10.3 3.4,-6.4 7.1,-10.3 14,-10.3 6.9,0 13.2,6.5 13.2,18.4 v 42.7 h -10.1 v -41.9 c 0,-6.9 -2,-10.4 -6.4,-10.4 -4.4,0 -6.4,3.1 -9.6,9.2 v 43.2 h -9.3 v -41.9 c 0,-6.9 -1.7,-10.4 -6.1,-10.4 -4.4,0 -6.9,3.1 -9.8,9.2 v 43.2 h -10.1 v -59.6 z"
           id="path14"
           style="fill:#01326b" />
        <path
           class="st2"
           d="m 3542.9,-1040.9 h 8.1 l 0.9,7.8 h 0.2 c 3.1,-5.5 6.7,-9.3 13.6,-9.3 6.9,0 9.6,3.4 11.3,10.3 3.4,-6.4 7.1,-10.3 14,-10.3 6.9,0 13.2,6.5 13.2,18.4 v 42.7 h -10.1 v -41.9 c 0,-6.9 -2,-10.4 -6.4,-10.4 -4.4,0 -6.4,3.1 -9.6,9.2 v 43.2 h -9.3 v -41.9 c 0,-6.9 -1.7,-10.4 -6.1,-10.4 -4.4,0 -6.9,3.1 -9.8,9.2 v 43.2 h -10.1 v -59.6 z"
           id="path15"
           style="fill:#01326b" />
        <path
           class="st2"
           d="m 3648,-1032.7 h -27.6 v -8.2 h 37.8 v 59.6 H 3648 Z m -4.1,-28.5 c 0,-4.7 3.4,-7.8 8.1,-7.8 4.7,0 8.1,3.2 8.1,7.8 0,4.6 -3.4,7.8 -8.1,7.8 -4.7,0 -8.1,-3.1 -8.1,-7.8 z"
           id="path16"
           style="fill:#01326b" />
        <path
           class="st2"
           d="m 3694.4,-1040.9 h 8.3 l 0.9,10.1 h 0.5 c 6.3,-6.5 13.1,-11.5 22.4,-11.5 14.1,0 20.6,8.3 20.6,24 v 37 h -10.2 v -35.7 c 0,-11.3 -3.9,-16.6 -13.6,-16.6 -9.7,0 -11.9,3.6 -18.8,10.7 v 41.6 h -10.2 v -59.6 z"
           id="path17"
           style="fill:#01326b" />
        <path
           class="st2"
           d="m 3765.4,-970.4 c 0,-4.8 3.4,-9.6 9.8,-13.2 v -0.5 c -3.2,-1.7 -6.1,-4.8 -6.1,-9.8 0,-5 2.6,-8.1 7.1,-11.2 v -0.5 c -4,-3.1 -7.4,-8.3 -7.4,-15.4 0,-13 10.8,-21.3 23.4,-21.3 12.6,0 6.2,0.5 8.8,1.5 h 24.6 v 8.2 h -15.5 c 2.7,2.8 5,7.2 5,12 0,12.7 -10.2,20.5 -23.1,20.5 -12.9,0 -6.7,-0.7 -10.1,-2.2 -2.9,1.8 -4.7,4 -4.7,6.9 0,4.7 4.5,6.9 12.4,6.9 h 13.4 c 15.3,0 22.7,3.9 22.7,14 0,10.1 -12.9,20.8 -33.1,20.8 -20.2,0 -27.5,-6 -27.5,-16.6 z m 50.6,-2.7 c 0,-5.6 -4.5,-7.2 -13.6,-7.2 h -11.7 c -3.4,0 -6.5,-0.2 -9.1,-1 -5.6,3.1 -7.6,6.5 -7.6,9.9 0,6.2 6.7,10.2 19.5,10.2 12.8,0 22.4,-5.8 22.4,-11.9 z m -10,-47.9 c 0,-8.3 -6.1,-14 -13.7,-14 -7.6,0 -13.7,5.6 -13.7,14 0,8.4 6.3,14.1 13.7,14.1 7.4,0 13.7,-5.5 13.7,-14.1 z"
           id="path18"
           style="fill:#01326b" />
        <path
           class="st2"
           d="m 3037,-914.5 h 10.2 v 71.7 h 39.7 v 8.7 H 3037 Z"
           id="path19"
           style="fill:#01326b" />
        <path
           class="st2"
           d="m 3101.5,-863.8 c 0,-20 13.7,-31.4 29.4,-31.4 15.7,0 29.4,11.4 29.4,31.4 0,20 -13.7,31.1 -29.4,31.1 -15.7,0 -29.4,-11.4 -29.4,-31.1 z m 48.4,0 c 0,-13.7 -7.6,-22.9 -19,-22.9 -11.4,0 -19,9.2 -19,22.9 0,13.7 7.6,22.7 19,22.7 11.4,0 19,-9.1 19,-22.7 z"
           id="path20"
           style="fill:#01326b" />
        <path
           class="st2"
           d="m 3176.6,-823.2 c 0,-4.8 3.4,-9.6 9.8,-13.2 v -0.5 c -3.2,-1.7 -6.1,-4.8 -6.1,-9.8 0,-5 2.6,-8.1 7.1,-11.2 v -0.5 c -4,-3.1 -7.4,-8.3 -7.4,-15.4 0,-13 10.8,-21.3 23.4,-21.3 12.6,0 6.2,0.5 8.8,1.5 h 24.6 v 8.2 h -15.5 c 2.7,2.8 5,7.2 5,12 0,12.7 -10.2,20.5 -23.1,20.5 -12.9,0 -6.7,-0.7 -10.1,-2.2 -2.9,1.8 -4.7,4 -4.7,6.9 0,4.7 4.5,6.9 12.4,6.9 h 13.4 c 15.3,0 22.7,3.9 22.7,14 0,10.1 -12.9,20.8 -33.1,20.8 -20.2,0 -27.5,-6 -27.5,-16.6 z m 50.6,-2.7 c 0,-5.6 -4.5,-7.2 -13.6,-7.2 h -11.7 c -3.4,0 -6.5,-0.2 -9.1,-1 -5.6,3.1 -7.6,6.5 -7.6,9.9 0,6.2 6.7,10.2 19.5,10.2 12.8,0 22.4,-5.8 22.4,-11.9 z m -10,-47.9 c 0,-8.3 -6.1,-14 -13.7,-14 -7.6,0 -13.7,5.6 -13.7,14 0,8.4 6.3,14.1 13.7,14.1 7.4,0 13.7,-5.5 13.7,-14.1 z"
           id="path21"
           style="fill:#01326b" />
        <path
           class="st2"
           d="m 3280,-885.5 h -27.6 v -8.2 h 37.8 v 59.6 H 3280 Z m -4.1,-28.5 c 0,-4.7 3.4,-7.8 8.1,-7.8 4.7,0 8.1,3.2 8.1,7.8 0,4.6 -3.4,7.8 -8.1,7.8 -4.7,0 -8.1,-3.1 -8.1,-7.8 z"
           id="path22"
           style="fill:#01326b" />
        <path
           class="st2"
           d="m 3324.8,-863.8 c 0,-20 15.2,-31.4 33.2,-31.4 18,0 16.8,3.9 21.7,8.7 l -5,6.5 c -4.9,-4.2 -10.1,-6.7 -16.3,-6.7 -13.7,0 -23.2,9.2 -23.2,22.9 0,13.7 9.3,22.7 22.9,22.7 13.6,0 13.5,-3.3 18.4,-7.5 l 4.5,6.6 c -6.6,5.9 -14.8,9.3 -23.7,9.3 -18.6,0 -32.6,-11.4 -32.6,-31.1 z"
           id="path23"
           style="fill:#01326b" />
        <path
           class="st2"
           d="m 3472,-849.5 c 0,-13.4 12.5,-19.9 43.3,-22.3 -0.4,-8.1 -4.3,-15 -15.8,-15 -11.5,0 -15.3,3.7 -20.8,7.1 l -4.1,-6.9 c 6.1,-3.9 16.2,-8.6 26.6,-8.6 16.3,0 24.3,9.7 24.3,24.5 v 36.5 h -8.5 l -0.9,-8.1 h -0.4 c -6.5,5.2 -15.1,9.6 -23.4,9.6 -8.3,0 -20.4,-6.2 -20.4,-16.9 z m 43.3,-0.2 v -15.4 c -25.5,2 -33.2,7 -33.2,14.8 0,7.8 6.1,9.4 13,9.4 6.9,0 13.4,-3.2 20.2,-8.8 z"
           id="path24"
           style="fill:#01326b" />
        <path
           class="st2"
           d="m 3547.2,-893.7 h 8.3 l 0.9,10.1 h 0.5 c 6.3,-6.5 13.1,-11.5 22.4,-11.5 14.1,0 20.6,8.3 20.6,24 v 37 h -10.2 v -35.7 c 0,-11.3 -3.9,-16.6 -13.6,-16.6 -9.7,0 -11.9,3.6 -18.8,10.7 v 41.6 h -10.2 v -59.6 z"
           id="path25"
           style="fill:#01326b" />
        <path
           class="st2"
           d="m 3616.7,-863.8 c 0,-19.4 12.9,-31.4 27,-31.4 14.1,0 12.6,2.8 17.9,7.6 h 0.2 l -0.5,-10.9 v -22.9 h 10.2 v 87.3 h -8.3 l -0.8,-7.8 h -0.4 c -4.9,5 -12,9.3 -19.5,9.3 -15.5,0 -25.7,-11.3 -25.7,-31.1 z m 44.7,13.8 v -29.7 c -5.4,-5 -10.4,-6.9 -15.6,-6.9 -10.3,0 -18.6,9.1 -18.6,22.7 0,13.6 6.6,22.7 17.5,22.7 10.9,0 11.4,-2.9 16.7,-8.8 z"
           id="path26"
           style="fill:#01326b" />
        <path
           class="st2"
           d="m 3028.8,-697.3 6.1,-7.1 c 6.1,6 14.5,9.9 23.5,9.9 9,0 17.4,-5.3 17.4,-12.6 0,-7.3 -6.3,-11 -14.3,-14.5 l -11.7,-5.1 c -8,-3.2 -17.3,-8.8 -17.3,-20.7 0,-11.9 11,-21.3 26.4,-21.3 15.4,0 18.9,4 24.8,9.9 l -5.4,6.6 c -5.3,-4.7 -11.4,-7.5 -19.7,-7.5 -8.3,0 -15.6,4.4 -15.6,11.7 0,7.3 7.5,10.5 14.3,13.2 l 11.3,5 c 9.9,3.9 17.8,9.6 17.8,21.5 0,11.9 -10.8,22.9 -28.4,22.9 -17.6,0 -22,-4.7 -29.2,-11.9 z"
           id="path27"
           style="fill:#01326b" />
        <path
           class="st2"
           d="m 3102.5,-716.8 c 0,-19.4 14.5,-31.1 30.4,-31.1 15.9,0 27.2,11.2 27.2,28 0,16.8 -0.2,4.5 -0.5,6.1 h -50.4 v -7.8 h 44.4 l -2.6,2.8 c 0,-14.1 -7,-21.1 -17.9,-21.1 -10.9,0 -20.6,8.3 -20.6,23.2 0,14.9 10.1,23.3 23.3,23.3 13.2,0 12.7,-2.2 18.1,-5.6 l 3.7,6.6 c -5.9,3.9 -13.5,7.1 -23.1,7.1 -17.9,0 -32.1,-11.5 -32.1,-31.4 z"
           id="path28"
           style="fill:#01326b" />
        <path
           class="st2"
           d="m 3174.9,-746.5 h 8.1 l 0.9,7.8 h 0.2 c 3.1,-5.5 6.7,-9.3 13.6,-9.3 6.9,0 9.6,3.4 11.3,10.3 3.4,-6.4 7.1,-10.3 14,-10.3 6.9,0 13.2,6.5 13.2,18.4 v 42.7 h -10.1 v -41.9 c 0,-6.9 -2,-10.4 -6.4,-10.4 -4.4,0 -6.4,3.1 -9.6,9.2 v 43.2 h -9.3 v -41.9 c 0,-6.9 -1.7,-10.4 -6.1,-10.4 -4.4,0 -6.9,3.1 -9.8,9.2 v 43.2 h -10.1 v -59.6 z"
           id="path29"
           style="fill:#01326b" />
        <path
           class="st2"
           d="m 3251.2,-702.3 c 0,-13.4 12.5,-19.9 43.3,-22.3 -0.4,-8.1 -4.3,-15 -15.8,-15 -11.5,0 -15.3,3.7 -20.8,7.1 l -4.1,-6.9 c 6.1,-3.9 16.2,-8.6 26.6,-8.6 16.3,0 24.3,9.7 24.3,24.5 v 36.5 h -8.5 l -0.9,-8.1 h -0.4 c -6.5,5.2 -15.1,9.6 -23.4,9.6 -8.3,0 -20.4,-6.2 -20.4,-16.9 z m 43.2,-0.2 v -15.4 c -25.5,2 -33.2,7 -33.2,14.8 0,7.8 6.1,9.4 13,9.4 6.9,0 13.4,-3.2 20.2,-8.8 z"
           id="path30"
           style="fill:#01326b" />
        <path
           class="st2"
           d="m 3326.4,-746.5 h 8.3 l 0.9,10.1 h 0.5 c 6.3,-6.5 13.1,-11.5 22.4,-11.5 14.1,0 20.6,8.3 20.6,24 v 37 h -10.2 v -35.7 c 0,-11.3 -3.9,-16.6 -13.6,-16.6 -9.7,0 -11.9,3.6 -18.8,10.7 v 41.6 h -10.2 v -59.6 z"
           id="path31"
           style="fill:#01326b" />
        <path
           class="st2"
           d="m 3413.8,-710.1 v -28.2 h -16.9 v -7.6 l 17.3,-0.6 1.3,-19.1 h 8.5 v 19.1 h 29.2 v 8.2 H 3424 v 28.3 c 0,10.7 3.6,16.2 15.1,16.2 11.5,0 9.9,-1.1 14.2,-2.7 l 2.2,7.5 c -5.4,2 -11.2,3.6 -18.6,3.6 -17.4,0 -23.1,-9.9 -23.1,-24.6 z"
           id="path32"
           style="fill:#01326b" />
        <path
           class="st2"
           d="m 3500.8,-738.3 h -27.6 v -8.2 h 37.8 v 59.6 h -10.2 z m -4.1,-28.5 c 0,-4.7 3.4,-7.8 8.1,-7.8 4.7,0 8.1,3.2 8.1,7.8 0,4.6 -3.4,7.8 -8.1,7.8 -4.7,0 -8.1,-3.1 -8.1,-7.8 z"
           id="path33"
           style="fill:#01326b" />
        <path
           class="st2"
           d="m 3545.6,-716.6 c 0,-20 15.2,-31.4 33.2,-31.4 18,0 16.8,3.9 21.7,8.7 l -5,6.5 c -4.9,-4.2 -10.1,-6.7 -16.3,-6.7 -13.7,0 -23.2,9.2 -23.2,22.9 0,13.7 9.3,22.7 22.9,22.7 13.6,0 13.5,-3.3 18.4,-7.5 l 4.5,6.6 c -6.6,5.9 -14.8,9.3 -23.7,9.3 -18.6,0 -32.6,-11.4 -32.6,-31.1 z"
           id="path34"
           style="fill:#01326b" />
        <path
           class="st2"
           d="m 3618.1,-694.7 4.7,-6.7 c 6.9,4.9 15,8.1 25.9,8.1 10.9,0 15,-4.2 15,-9.2 0,-5 -2.3,-7.7 -18.5,-11 -15.6,-3.2 -23.3,-8.5 -23.3,-17.4 0,-8.9 8.5,-16.9 24.8,-16.9 16.3,0 18.1,3.6 24,7.6 l -4.9,6.5 c -5.5,-3.8 -12.4,-6.2 -20,-6.2 -7.6,0 -13.7,4 -13.7,8.6 0,4.6 5.2,7.3 17.4,9.9 19.7,4.3 24.5,9.2 24.5,18.4 0,9.2 -9.4,17.8 -26.5,17.8 -17.1,0 -22.1,-4.3 -29.3,-9.3 z"
           id="path35"
           style="fill:#01326b" />
      </g>
    </g>
  </g>
</svg>
