<?xml version="1.0" encoding="UTF-8" standalone="no"?>
<svg
   id="Layer_1"
   version="1.1"
   viewBox="0 0 888.40002 433.22018"
   sodipodi:docname="student.svg"
   width="888.40002"
   height="433.22018"
   inkscape:version="1.4.2 (ebf0e940d0, 2025-05-08)"
   xmlns:inkscape="http://www.inkscape.org/namespaces/inkscape"
   xmlns:sodipodi="http://sodipodi.sourceforge.net/DTD/sodipodi-0.dtd"
   xmlns="http://www.w3.org/2000/svg"
   xmlns:svg="http://www.w3.org/2000/svg">
  <sodipodi:namedview
     id="namedview55"
     pagecolor="#ffffff"
     bordercolor="#000000"
     borderopacity="0.25"
     inkscape:showpageshadow="2"
     inkscape:pageopacity="0.0"
     inkscape:pagecheckerboard="0"
     inkscape:deskcolor="#d1d1d1"
     inkscape:zoom="0.97005208"
     inkscape:cx="444.82148"
     inkscape:cy="214.93691"
     inkscape:window-width="1536"
     inkscape:window-height="996"
     inkscape:window-x="0"
     inkscape:window-y="0"
     inkscape:window-maximized="1"
     inkscape:current-layer="Layer_1" />
  <!-- Generator: Adobe Illustrator 29.5.1, SVG Export Plug-In . SVG Version: 2.1.0 Build 141)  -->
  <defs
     id="defs5">
    <style
       id="style1">
      .st0 {
        fill: #d9e3f5;
      }

      .st1 {
        stroke: #eca44d;
        stroke-width: 4px;
      }

      .st1, .st2, .st3, .st4, .st5, .st6, .st7, .st8, .st9 {
        fill: none;
      }

      .st1, .st2, .st3, .st4, .st5, .st7, .st9 {
        stroke-linecap: round;
      }

      .st1, .st2, .st3, .st5, .st6, .st8, .st9 {
        stroke-miterlimit: 10;
      }

      .st2 {
        stroke: #caab6c;
      }

      .st2, .st5 {
        stroke-width: .8px;
      }

      .st10 {
        fill: #e9cd96;
      }

      .st11, .st12, .st13, .st14, .st15, .st16 {
        fill: #1d376a;
      }

      .st17 {
        fill: #5b5b5b;
      }

      .st18 {
        fill: #4b402a;
      }

      .st12 {
        opacity: .1;
      }

      .st19 {
        fill: url(#linear-gradient);
      }

      .st3, .st4, .st8 {
        stroke: #000;
      }

      .st4, .st7 {
        stroke-linejoin: round;
      }

      .st20 {
        fill: #3d3d3d;
      }

      .st21 {
        fill: #f6c43f;
      }

      .st22 {
        fill: #fff8f1;
      }

      .st13 {
        font-size: 18.7px;
      }

      .st13, .st14, .st15, .st16 {
        font-family: MyriadPro-Regular, 'Myriad Pro';
      }

      .st14 {
        font-size: 16.9px;
      }

      .st15 {
        font-size: 10.4px;
      }

      .st16 {
        font-size: 23.4px;
      }

      .st5 {
        stroke: #3d3d3d;
      }

      .st6, .st7 {
        stroke: #2d2d2d;
      }

      .st8 {
        stroke-width: 2px;
      }

      .st23 {
        fill: #2d2d2d;
      }

      .st9 {
        stroke: #dcc094;
        stroke-width: .8px;
      }

      .st24 {
        fill: #dadada;
      }

      .st25 {
        fill: #eca44d;
      }
    </style>
    <linearGradient
       id="linear-gradient"
       x1="817.09998"
       y1="203.89999"
       x2="825.09998"
       y2="203.89999"
       gradientUnits="userSpaceOnUse"
       gradientTransform="translate(-238.5,-168.77983)">
      <stop
         offset="0"
         stop-color="red"
         id="stop1" />
      <stop
         offset=".2"
         stop-color="#ff1a28"
         stop-opacity=".8"
         id="stop2" />
      <stop
         offset=".6"
         stop-color="#ff486e"
         stop-opacity=".4"
         id="stop3" />
      <stop
         offset=".9"
         stop-color="#ff659a"
         stop-opacity="0"
         id="stop4" />
      <stop
         offset="1"
         stop-color="#ff71ac"
         stop-opacity="0"
         id="stop5" />
    </linearGradient>
  </defs>
  <path
     d="m 164,185.02017 c -4,-9.9 -7.7,-20.1 -12.6,-29.6 -3.9,-7.6 -8.7,-14.7 -16,-19.4 -7.3,-4.7 -14.4,-6.3 -21.9,-7.3 -7.5,-1 -5.2,-0.4 -7.5,0.8 -2.3,1.2 -3.5,3.5 -4,5.9 -1,4.1 -0.7,8.6 -0.5,12.8 0.2,4.2 0.6,11 1.3,16.5 1.3,9.7 3.7,19 6.8,28.2 3.1,9.2 4.4,12.9 7.2,19.1 2.8,6.2 6.3,13 11.2,18.2 4.9,5.2 4.6,4.3 7.4,5.5 2.8,1.2 7.4,2 11.2,1.6 9.2,-0.9 17.7,-5.3 25.5,-9.9 7.8,-4.6 3.6,-2.1 5.3,-3.2 1.7,-1.1 0.9,-1.1 0.7,-1.7 -3.8,-10.2 -7.5,-20.3 -11.4,-30.5 -3.9,-10.2 -1.8,-4.7 -2.7,-7.1 -0.9,-2.4 -3.6,-1 -2.9,0.8 4.5,11 8.5,22.3 12.6,33.5 4.1,11.2 1,2.7 1.5,4 l 0.7,-1.7 c -7.3,4.4 -14.8,9 -23,11.4 -6.7,2 -14,2.3 -19.8,-2.2 -5.8,-4.5 -8.6,-9.9 -11.5,-15.6 -2.9,-5.7 -5.5,-12.4 -7.7,-18.8 -2.2,-6.4 -5.1,-15 -6.7,-22.7 -1.6,-7.7 -2.9,-20.7 -3,-31.1 -0.1,-10.4 0,-6.1 1.3,-8.7 1.3,-2.6 2.4,-2.3 4.3,-2.4 2.9,-0.2 5.8,0.5 8.5,1.1 2.7,0.6 7.6,1.9 11.1,3.5 6.9,3.2 12.1,8.6 16.1,15.1 4,6.5 9,18.2 12.7,27.6 3.7,9.4 1.8,4.6 2.8,6.9 1,2.3 3.6,1 2.9,-0.8 z"
     id="path5" />
  <path
     d="m 158.8,174.62017 c -2.2,0 -4.4,0.4 -6.4,1.1 -2,0.7 -3.4,1.3 -5.1,1.8 -1.7,0.5 -1.3,1.1 -1.1,1.9 0.2,0.8 1.1,1.3 1.9,1.1 1.7,-0.5 3.3,-1.2 4.9,-1.7 1.6,-0.5 3.8,-1.1 5.8,-1 2,0.1 1.5,-0.7 1.5,-1.5 0,-0.8 -0.7,-1.5 -1.5,-1.5 v 0 z"
     id="path6" />
  <path
     d="m 155.4,166.72017 c -2.1,-0.4 -4.1,-0.2 -6.1,0.4 -2,0.6 -3,1.1 -4.6,1.5 -1.6,0.4 -1.3,1.1 -1.1,1.9 0.2,0.8 1.1,1.2 1.9,1.1 1.5,-0.3 2.9,-0.9 4.3,-1.4 1.4,-0.5 0.8,-0.2 1.2,-0.3 0.4,-0.1 0.4,0 0.6,-0.1 0.2,-0.1 0.2,0 0.3,0 0.1,0 0.2,0 0,0 0.5,0 0.9,0 1.4,0 0.5,0 0.9,0 1.2,0.1 0.8,0.1 1.7,-0.2 1.9,-1.1 0.2,-0.9 -0.2,-1.7 -1.1,-1.9 v 0 z"
     id="path7" />
  <path
     d="m 152.8,160.12017 c -1.9,-0.5 -3.7,-0.4 -5.6,0 -1.9,0.4 -2.9,0.8 -4.3,1.3 -1.4,0.5 -1.3,1.1 -1.1,1.9 0.2,0.8 1.1,1.3 1.9,1.1 1.3,-0.4 2.7,-0.9 4,-1.2 1.3,-0.3 0.3,0 0.5,-0.1 0.2,-0.1 0.6,0 0.3,0 0.4,0 0.8,0 1.2,0 0.9,0 1.4,0 2.3,0.3 0.9,0.3 1.7,-0.2 1.9,-1.1 0.2,-0.9 -0.2,-1.7 -1.1,-1.9 v 0 z"
     id="path8" />
  <ellipse
     class="st12"
     cx="444.20001"
     cy="407.12018"
     rx="444.20001"
     ry="26.1"
     id="ellipse8" />
  <line
     class="st1"
     x1="379.90002"
     y1="132.02016"
     x2="376.70001"
     y2="382.62018"
     id="line8" />
  <line
     class="st1"
     x1="477"
     y1="134.22017"
     x2="478.20001"
     y2="385.92017"
     id="line9" />
  <path
     class="st11"
     d="m 147.8,305.92017 c 0,0 116.3,-128 206.9,-161.9 0,0 37.3,-8 232.3,60.4 l 26.8,4.9 16,-72.7 64.7,-2.5 c 0,0 9.4,97.5 0,121.4 -9.4,23.9 -26.5,45 -68.4,40.1 -41.9,-4.9 -37.9,-24.2 -162.7,-70.3 -124.8,-46 -291.4,-0.7 -291.4,-0.7 l -11.6,-47.4 c 0,0 46.4,-13.7 145.5,-29.5 80.5,-12.8 112,9.5 166.4,37.1 0,0 -59.2,-33.3 -101.1,-9.3 l -185.2,175.2 z"
     id="path9" />
  <polygon
     class="st10"
     points="831.9,209.9 859.9,208.8 860.4,186.8 831.9,187.9 "
     id="polygon9"
     transform="translate(-238.5,-168.77983)" />
  <circle
     class="st10"
     cx="584.09998"
     cy="31.020168"
     r="15.6"
     id="circle9" />
  <path
     class="st10"
     d="m 571.7,29.920166 c 0,0 -6.8,2 -6.8,3.5 0,1.5 2.1,2.3 2.9,2.4 0.8,0.1 5.8,0.2 5.8,0.2 l -1.9,-6 z"
     id="path10" />
  <circle
     class="st19"
     cx="582.59998"
     cy="35.120159"
     r="4"
     id="circle10"
     style="fill:url(#linear-gradient)" />
  <ellipse
     class="st22"
     cx="575.79999"
     cy="26.620159"
     rx="2.8"
     ry="3"
     id="ellipse10" />
  <ellipse
     class="st20"
     cx="574.90002"
     cy="26.820171"
     rx="1.1"
     ry="1.2"
     id="ellipse11" />
  <path
     class="st2"
     d="m 574.1,21.620166 c 2.6,-1.3 6.9,0.7 6.9,3.5"
     id="path11" />
  <path
     class="st5"
     d="M 571.8,26.420166"
     id="path12" />
  <ellipse
     class="st17"
     cx="59.239876"
     cy="565.93671"
     rx="0.40000001"
     ry="1.7"
     transform="rotate(-80.5)"
     id="ellipse12" />
  <path
     class="st9"
     d="m 594.5,25.520166 c 0,0 3.5,-2.1 4.9,0.1 1.4,2.2 0.7,5.5 -3.5,6.1 h -1.5"
     id="path13" />
  <path
     class="st18"
     d="m 573.8,19.220166 c -2.8,-0.2 -5.2,0.3 -6.9,-0.7 -1.7,-1 -1.6,-2.9 -0.4,-4.7 0.5,-0.8 1.4,-1.4 2.8,-1.7 5.4,-1.1 8.8,1.2 10.2,0.6 1.4,-0.6 2,0.1 2.9,0 0.9,-0.1 0.6,-0.6 1.7,-0.7 1.1,-0.1 2.1,0.4 2.9,1 0.8,0.6 0.9,1.6 1.9,2 1,0.4 1.8,-0.3 2.5,0 0.7,0.3 0.7,0.8 1,1.2 0.3,0.4 1.5,1.1 1.8,1.7 0.3,0.6 0,1.1 0,1.1 -0.8,-0.6 -5.5,-4.5 -12,-3.3 -3.4,0.6 -7.3,2.4 -8.4,3.4 z"
     id="path14" />
  <rect
     class="st21"
     x="620.20001"
     y="15.920163"
     width="5.5"
     height="25.700001"
     id="rect14" />
  <path
     d="m 152.8,306.72017 c -6.6,-8 -13,-16.2 -20.3,-23.6 -7.3,-7.4 -13,-11.7 -21.6,-14 -8.6,-2.3 -8.3,-1.4 -12.6,-1.2 -4.3,0.2 -7.3,0.4 -10.9,1.2 -3.6,0.8 -4.8,1.3 -6.4,3.2 -1.6,1.9 -2,4.6 -1.7,7 0.5,4.3 2.1,8.4 3.5,12.4 1.4,4 3.6,9.4 5.7,13.9 4,8.6 8.9,16.6 14.5,24.2 5.6,7.6 8.4,11.4 13.2,16.7 4.8,5.3 10.5,11 17.1,14.3 6.6,3.3 6,2.5 9.2,2.6 3.2,0.1 7.7,-1 11.2,-2.7 7.8,-3.8 14.1,-10.2 19.8,-16.5 5.7,-6.3 2.6,-2.9 3.9,-4.4 1.3,-1.5 0.5,-1.4 0,-2.1 -6.6,-8.5 -13.3,-17 -20,-25.4 -6.7,-8.4 -3.1,-3.9 -4.7,-5.8 -1.6,-1.9 -3.3,0.6 -2.1,2.1 7.6,9.1 14.7,18.6 22,27.9 0.9,1.1 1.7,2.2 2.6,3.3 v -2.1 c -5.3,6 -10.6,12.2 -17.2,16.9 -6.6,4.7 -12.6,7.2 -19.6,5.1 -7,-2.1 -11.8,-6.8 -16.5,-11.4 -5,-5 -9.4,-10.6 -13.6,-16.3 -4.2,-5.7 -9.3,-12.8 -13.2,-19.8 -3.9,-7 -8.3,-17.4 -11.3,-26.6 -3,-9.2 -2.1,-6.1 -1.7,-9.2 0.4,-3.1 1.4,-3 3.2,-3.8 1.8,-0.8 5.4,-1.3 8,-1.5 4,-0.4 8.1,-0.6 12.1,0 8,1 14.9,5 20.9,10.3 6,5.3 13.4,14.2 19.6,21.7 6.2,7.5 3,3.7 4.5,5.5 1.5,1.8 3.3,-0.6 2.1,-2.1 z"
     id="path15" />
  <line
     class="st1"
     x1="359.59998"
     y1="130.52016"
     x2="350.40002"
     y2="399.12018"
     id="line15" />
  <line
     class="st1"
     x1="493.5"
     y1="135.32018"
     x2="507.5"
     y2="399.42017"
     id="line16" />
  <rect
     class="st25"
     x="336.20001"
     y="125.42018"
     width="181.3"
     height="8.1000004"
     id="rect16" />
  <rect
     class="st24"
     x="599.70001"
     y="296.22015"
     width="87.599998"
     height="34.200001"
     rx="11.2"
     ry="11.2"
     id="rect17" />
  <polyline
     class="st8"
     points="859.7 556.1 883.6 568 883.4 499.2"
     id="polyline17"
     transform="translate(-238.5,-168.77983)" />
  <polyline
     class="st8"
     points="904.4 587.7 883.6 568 914.1 551.7"
     id="polyline18"
     transform="translate(-238.5,-168.77983)" />
  <line
     class="st8"
     x1="619.20001"
     y1="416.22015"
     x2="645.09998"
     y2="399.22015"
     id="line18" />
  <circle
     cx="619.09998"
     cy="390.32013"
     r="5.5999999"
     id="circle18" />
  <circle
     cx="620.90002"
     cy="419.42017"
     r="5.5999999"
     id="circle19" />
  <circle
     cx="664"
     cy="422.52014"
     r="5.5999999"
     id="circle20" />
  <circle
     cx="676.09998"
     cy="387.42017"
     r="5.5999999"
     id="circle21" />
  <rect
     x="641.79999"
     y="330.42017"
     width="6.3000002"
     height="10.5"
     id="rect21" />
  <g
     id="g34"
     transform="translate(-238.5,-168.77983)">
    <path
       class="st3"
       d="m 774.9,241.2 c 0,0 -15.5,-18 -42.2,-15.4 -26.6,2.6 -30.4,17.2 -30.4,17.2 0,0 -2,10.9 11.7,0.9 0,0 6.6,-4.1 7.7,-4.5 1.5,-0.6 1,1.8 2.6,3.3 1.6,1.5 -4.5,3.5 -3.3,6.5 1.2,3 5.1,5.2 6.5,5.6 1.4,0.4 -1,-0.5 -1,-0.5 0,0 -0.7,2.8 1.1,4.1 1.8,1.3 9.2,4 13.8,2.5 7.2,-2.2 4.2,-4.5 3.4,-5.1"
       id="path21" />
    <path
       class="st3"
       d="m 761.8,255.9 c 0,0 -20,-8.6 -21.7,-10.1 -1.7,-1.5 -11.5,0.8 -14.8,-2.2 -3.3,-3 -3.3,-7.1 0.9,-8.3 4.2,-1.2 14.9,-0.4 26.8,4.7"
       id="path22" />
    <path
       class="st3"
       d="m 702.5,242.9 c 0,0 4.7,-0.9 6.6,-3.4 1.9,-2.5 1.4,-4.3 0.3,-5.2"
       id="path23" />
    <path
       class="st3"
       d="m 725.9,226.9 c 0,0 0.2,1.2 0.6,2.4"
       id="path24" />
    <path
       class="st3"
       d="m 727.9,226.4 c 0,0 0.2,1.9 0.9,3.2"
       id="path25" />
    <path
       class="st3"
       d="m 732.8,235.3 c 0,0 -0.3,4.9 -2.5,5.8 -1.4,0.6 -3.1,0 -3,-2.5 0.1,-2.5 0.3,-3.3 0.3,-3.3"
       id="path26" />
    <path
       class="st3"
       d="m 737.7,234.9 c 0,0 2.9,-2 3.5,-3"
       id="path27" />
    <path
       class="st3"
       d="m 740.4,236.4 c 0,0 -0.5,2.9 -0.9,3.7"
       id="path28" />
    <path
       class="st3"
       d="m 743.4,236.9 c 0,0 -0.6,3.7 -1.1,4.5"
       id="path29" />
    <path
       class="st3"
       d="m 723.1,251.8 c 0,0 1.7,-2.8 2.8,-3.5"
       id="path30" />
    <path
       class="st3"
       d="m 721.4,249.5 c 0,0 2.2,-2.8 3.2,-3.3"
       id="path31" />
    <path
       class="st3"
       d="m 728,254.8 c 0,0 8.9,3.6 12.1,3.2 3.2,-0.4 9,-5.9 1.3,-8.1 -7.7,-2.2 -10.3,-1.4 -12.9,-3.7"
       id="path32" />
    <path
       class="st4"
       d="m 739.3,251.2 -0.6,4.5 c 0,0 2.6,0.6 3.5,-0.7 0.9,-1.3 0.9,-2.8 -2.8,-3.8 z"
       id="path33" />
    <path
       class="st3"
       d="m 746,257.3 c 0,0 9.4,0.4 12,-2.6"
       id="path34" />
  </g>
  <g
     id="g35"
     transform="translate(-238.5,-168.77983)">
    <rect
       class="st23"
       x="633.59998"
       y="233.2"
       width="7.6999998"
       height="61"
       transform="rotate(-15.2,636.12932,263.37484)"
       id="rect34" />
    <rect
       class="st23"
       x="642"
       y="288.20001"
       width="56.400002"
       height="6.0999999"
       id="rect35" />
  </g>
  <g
     id="g46"
     transform="translate(-238.5,-168.77983)">
    <path
       class="st7"
       d="m 704.7,281 c 0,0 -10.6,-9.3 -10.6,-11.2 0,-1.9 -5.8,15.4 -9.9,17.6 -2,1.1 -6.9,1.2 -4.6,-5.7 2.3,-6.9 3.2,-11.5 3.2,-11.5 0,0 1.1,-1.5 2.2,-3.2 1.1,-1.7 2.1,-3.2 2.5,-4 0.9,-1.7 3,-4.2 4.2,-9.2 0,0 0.4,-1.2 1.1,-1.9"
       id="path35" />
    <path
       class="st7"
       d="m 685.1,267 c 0,0 -9.8,11 -11.3,13.5 -1.5,2.5 -4,7.2 -6.5,7.2 -2.5,0 -7.2,0.1 -6.5,-3.5 0.7,-3.6 4.6,-8.5 5.4,-10.3 0.8,-1.8 4,-8.6 4.5,-10.3 0.5,-1.7 8.8,-7.1 9.7,-9.8 0.9,-2.7 3.6,-6 4.9,-7.2 1.3,-1.2 3.7,-4.2 4.9,-4.2"
       id="path36" />
    <path
       class="st7"
       d="m 670.9,262.8 c 0,0 -8.3,7.4 -9,10 -0.7,2.6 -4.9,11.2 -6.9,11.1 -2,-0.1 -4.6,0.2 -3.6,-4.5 1,-4.7 3.2,-9.6 4.4,-12.3 1.2,-2.7 4.9,-11.1 5.2,-12.2 0.3,-1.1 3.5,-4.9 7.5,-6.5 4,-1.6 15,-7.2 18.4,-9.8 1.6,-1.2 6.7,-2.9 9.5,0.2 2.8,3.1 21.8,31.6 21.8,31.6"
       id="path37" />
    <path
       class="st7"
       d="m 661.1,255.4 c 0,0 4,3.2 4.6,4.1"
       id="path38" />
    <line
       class="st7"
       x1="663"
       y1="252.7"
       x2="666.79999"
       y2="257.20001"
       id="line38" />
    <line
       class="st7"
       x1="665.20001"
       y1="250.39999"
       x2="668.5"
       y2="255.5"
       id="line39" />
    <line
       class="st7"
       x1="670.59998"
       y1="265"
       x2="674.70001"
       y2="269.39999"
       id="line40" />
    <line
       class="st7"
       x1="671.79999"
       y1="262"
       x2="674.90002"
       y2="265.79999"
       id="line41" />
    <line
       class="st7"
       x1="673.90002"
       y1="260.5"
       x2="676.79999"
       y2="264"
       id="line42" />
    <line
       class="st7"
       x1="683.09998"
       y1="271.29999"
       x2="687.20001"
       y2="273.89999"
       id="line43" />
    <line
       class="st7"
       x1="684.20001"
       y1="268.70001"
       x2="687.79999"
       y2="271.10001"
       id="line44" />
    <polyline
       class="st7"
       points="694.9 263.2 694.1 269.9 698.1 265"
       id="polyline44" />
    <path
       class="st6"
       d="m 680,280.5 3.7,1.5 c 0,0 -0.3,3.1 -1.5,3.4 -2,0.4 -3.2,-0.8 -3.2,-0.8"
       id="path44" />
    <path
       class="st7"
       d="m 665,276.6 4.4,2.8 c 0,0 -1.8,5.1 -3.1,5.3 -2.2,0.2 -4.5,-1.1 -4.9,-1.6"
       id="path45" />
    <path
       class="st7"
       d="m 653.2,273.8 4.4,3 c 0,0 -1.4,3.5 -2.8,4.1 -1.6,0.7 -3.2,-0.2 -3.3,-0.6"
       id="path46" />
  </g>
  <polygon
     class="st21"
     points="759.5,259.2 837.6,333.8 848.2,280.6 776.1,239.4 "
     id="polygon46"
     transform="translate(-238.5,-168.77983)" />
  <path
     class="st21"
     d="M 463.8,113.62017 481,99.420166 585,219.52017 624.4,43.320166 v -25.3 c 0.1,0 58.4,7.3 58.4,7.3 l 24.8,141.300004 -81.8,-2.4 c 0,0 -5.9,98.7 -15,115.2 -9.1,16.5 -37.5,45.6 -65.2,1.7 -27.7,-44 -81.7,-167.3 -81.7,-167.3 z"
     id="path47" />
  <polygon
     class="st0"
     points="650.9,239.4 668.8,240.5 649.3,249.9 656.6,255.7 645.6,259.4 641.9,235.7 686.7,203.6 "
     id="polygon47"
     transform="translate(-238.5,-168.77983)" />
  <path
     d="m 144,298.62017 c 0.3,0 -0.5,-0.1 -0.7,-0.2 -0.2,-0.1 0,0 -0.2,-0.1 -0.2,-0.1 -0.4,-0.2 -0.6,-0.3 -0.6,-0.4 -1.1,-0.9 -1.7,-1.5 -1.4,-1.5 -2.5,-3.2 -3.6,-5 -2.2,-3.9 -3.9,-8.2 -4.5,-12.6 -0.6,-4.4 -0.3,-3 0.2,-4.2 -0.1,0.3 0.3,-0.5 0.2,-0.4 -0.1,0.1 0.1,-0.1 0.2,-0.2 0.1,0 -0.2,0 0.2,-0.1 0,0 0.3,0 0.3,-0.1 -0.2,0 0.3,0 0.4,0 0.1,0 0.1,0 0.2,0 0.4,0 -0.2,0 0,0 1.8,0.3 3.1,1.5 4.3,2.9 1.7,2 3,4.4 4.1,6.8 1.1,2.4 2.3,5.8 2.5,8.9 0.2,3.1 0.2,4.9 -1.6,6.3 l 2.2,0.9 c -0.5,-3.5 1.2,-7.5 2.8,-10.5 1.6,-3 3.9,-6.8 7.1,-8.6 3.2,-1.8 3.4,-1.2 4.6,0.3 1.2,1.5 1.1,3.3 0.8,4.9 -0.7,3.6 -3.6,6.3 -6.3,8.4 -2.7,2.1 -7,4.6 -10.3,7.1 -3.3,2.5 -1,1.3 -0.5,2.1 0.5,0.8 1.4,1 2.1,0.5 3.5,-2.7 7.4,-4.9 10.9,-7.6 3.5,-2.7 6.6,-6.1 7.2,-10.5 0.6,-4.4 -1.8,-9.7 -7.1,-8.9 -5.3,0.8 -7.8,5.2 -10,8.9 -2.2,3.7 -4.8,9.6 -4.1,14.6 0.7,5 1.5,1.4 2.2,0.9 4.9,-3.8 3.2,-11.3 1.4,-16.2 -1.8,-4.9 -2.5,-6 -4.4,-8.6 -1.9,-2.6 -3.2,-4.1 -5.6,-5 -2.4,-0.9 -3.9,-0.9 -5.4,0.5 -1.5,1.4 -1.7,3.1 -1.7,4.8 0,5 1.9,10.1 4.1,14.5 2.2,4.4 5.3,9.9 10.3,10.5 5,0.6 1.9,-2.8 0,-3 v 0 z"
     id="path48" />
  <path
     d="m 146.2,300.32017 c -2.3,0 -4.4,0.6 -6.4,1.7 -2,1.1 -3.5,2.3 -5.1,3.5 -1.6,1.2 -1,1.3 -0.5,2.1 0.5,0.8 1.4,1 2.1,0.5 1.6,-1.1 3.1,-2.4 4.9,-3.3 1.8,-0.9 3.3,-1.4 5.2,-1.4 1.9,0 1.5,-0.7 1.5,-1.5 0,-0.8 -0.7,-1.5 -1.5,-1.5 v 0 z"
     id="path49" />
  <path
     d="m 137.8,293.32017 c -3.9,-0.3 -7,3.1 -9.8,5.4 -2.8,2.3 -0.6,1.6 0,2.1 0.6,0.5 1.5,0.5 2.1,0 0.6,-0.5 1.2,-1 1.8,-1.6 0.6,-0.6 0.7,-0.6 1,-0.8 0.3,-0.2 0.3,-0.2 0,0 0,0 0.1,-0.1 0.2,-0.2 0.2,-0.1 0.4,-0.3 0.6,-0.4 0.3,-0.2 0.7,-0.5 1,-0.7 0.3,-0.2 0.4,-0.2 0.6,-0.3 0.2,-0.1 0.2,0 0.2,-0.1 0.4,-0.2 -0.2,0 0,0 0.4,-0.1 0.8,-0.3 1.1,-0.3 0.3,0 0.4,0 0.2,0 -0.2,0 0.2,0 0.2,0 0.2,0 0.4,0 0.6,0 0.8,0 1.5,-0.7 1.5,-1.5 0,-0.8 -0.7,-1.4 -1.5,-1.5 v 0 z"
     id="path50" />
  <path
     d="m 133.6,286.12017 c -1.8,-0.3 -3.5,0.6 -5,1.6 -1.5,1 -2.9,2 -3.8,3.5 -0.9,1.5 -0.2,1.7 0.5,2.1 0.7,0.4 1.6,0.2 2.1,-0.5 0.5,-0.7 0,-0.1 0.1,-0.2 0,-0.1 0.2,-0.2 0,0.1 0.1,0 0.2,-0.2 0.3,-0.3 0.2,-0.3 0.5,-0.5 0.7,-0.7 0.2,-0.2 0.6,-0.5 0.9,-0.7 -0.1,0.1 -0.2,0.2 0,0 0.2,-0.2 0.1,-0.1 0.2,-0.2 0.2,-0.1 0.4,-0.2 0.5,-0.4 0.3,-0.2 0.7,-0.4 1,-0.6 0.3,-0.2 0.4,-0.2 0.5,-0.3 0.1,-0.1 0.6,-0.2 0.2,0 0.3,-0.1 0.6,-0.2 0.9,-0.3 0.3,-0.1 0.2,0 0.3,0 0,0 -0.4,0 -0.2,0 0.2,0 0.6,0 0,0 0.8,0.1 1.7,-0.2 1.8,-1 0.1,-0.8 -0.2,-1.7 -1,-1.8 v 0 z"
     id="path51" />
  <text
     class="st16"
     id="text51"
     x="518.90002"
     y="30.720165"><tspan
       x="518.90002"
       y="30.720165"
       id="tspan51">6</tspan></text>
  <text
     class="st14"
     id="text52"
     x="503.10001"
     y="12.320166"><tspan
       x="503.10001"
       y="12.320166"
       id="tspan52">1</tspan></text>
  <text
     class="st15"
     id="text53"
     x="463.79999"
     y="46.320168"><tspan
       x="463.79999"
       y="46.320168"
       id="tspan53">y</tspan></text>
  <text
     class="st15"
     id="text54"
     x="439.5"
     y="59.120167"><tspan
       x="439.5"
       y="59.120167"
       id="tspan54">=</tspan></text>
  <text
     class="st13"
     id="text55"
     x="493.79999"
     y="36.120167"><tspan
       x="493.79999"
       y="36.120167"
       id="tspan55">4</tspan></text>
  <path
     d="m 157.2,168.42017 c -0.9,-2.9 -2.8,-5.7 -2.9,-8.8 -0.1,-3.1 0.1,-2.4 1.1,-3 1,-0.6 1.7,-0.5 2.6,-0.2 2.4,0.9 1.8,3.8 1.2,5.7 -0.6,1.9 -0.7,2.2 -1.4,3 -0.7,0.8 -2.2,2 -2.9,3.3 -0.7,1.3 0.1,2.3 1.3,2.3 2.6,0 5.2,-0.4 7.8,-0.3 2.6,0.1 5.2,0.3 7.2,1.9 2,1.6 1.7,1.6 1.4,2.7 -0.3,1.1 -1.3,1.6 -2.2,2 -2.3,1 -5.1,0.4 -7.3,-0.6 -2.2,-1 -4.5,-3.7 -5.5,-6.5 -1,-2.8 -3.5,-1 -2.9,0.8 1.1,3.3 3.1,6.2 6.1,7.9 3,1.7 6.7,2.6 9.8,1.6 3.1,-1 5.9,-3.6 4.8,-7 -1.1,-3.4 -4.8,-5.1 -8,-5.5 -3.2,-0.4 -7.4,0 -11.2,0 l 1.3,2.3 c 0.7,-1.2 1.9,-2 2.8,-3.1 0.9,-1.1 1.3,-2.3 1.7,-3.5 0.8,-2.3 1.3,-5.3 -0.1,-7.5 -1.4,-2.2 -4,-3 -6.4,-2.5 -2.4,0.5 -4,3 -4.2,5.6 -0.2,3.7 2,6.9 3,10.3 1,3.4 3.5,1.1 2.9,-0.8 v 0 z"
     id="path55" />
</svg>
